<mxfile host="app.diagrams.net" agent="Mozilla/5.0 (Windows NT 10.0; Win64; x64) AppleWebKit/537.36 (KHTML, like Gecko) Chrome/134.0.0.0 Safari/537.36" version="26.2.3" pages="4">
  <diagram name="Phys_Dist" id="BDVHUxNwv-tf1GNEtS_E">
    <mxGraphModel dx="1428" dy="743" grid="0" gridSize="10" guides="1" tooltips="1" connect="1" arrows="1" fold="1" page="1" pageScale="1" pageWidth="1169" pageHeight="827" math="0" shadow="0">
      <root>
        <mxCell id="PBEkfZMtMf-Mp05Idrqj-0" />
        <mxCell id="PBEkfZMtMf-Mp05Idrqj-1" parent="PBEkfZMtMf-Mp05Idrqj-0" />
        <mxCell id="PBEkfZMtMf-Mp05Idrqj-2" value="" style="rounded=1;whiteSpace=wrap;html=1;strokeWidth=0;fillColor=#FFE6CC;strokeColor=#FFFFFF;shadow=1;" parent="PBEkfZMtMf-Mp05Idrqj-1" vertex="1">
          <mxGeometry x="98" y="327" width="296" height="268" as="geometry" />
        </mxCell>
        <mxCell id="PBEkfZMtMf-Mp05Idrqj-3" value="" style="rounded=1;whiteSpace=wrap;html=1;strokeWidth=0;fillColor=#F2F2F2;strokeColor=#FFFFFF;shadow=1;" parent="PBEkfZMtMf-Mp05Idrqj-1" vertex="1">
          <mxGeometry x="708" y="216" width="238" height="452" as="geometry" />
        </mxCell>
        <mxCell id="PBEkfZMtMf-Mp05Idrqj-4" value="" style="rounded=1;whiteSpace=wrap;html=1;strokeWidth=0;fillColor=#F2F2F2;strokeColor=#FFFFFF;" parent="PBEkfZMtMf-Mp05Idrqj-1" vertex="1">
          <mxGeometry x="255" y="452" width="112" height="106" as="geometry" />
        </mxCell>
        <mxCell id="PBEkfZMtMf-Mp05Idrqj-5" value="" style="rounded=1;whiteSpace=wrap;html=1;strokeWidth=0;fillColor=#F2F2F2;strokeColor=#FFFFFF;" parent="PBEkfZMtMf-Mp05Idrqj-1" vertex="1">
          <mxGeometry x="69" y="447" width="112" height="106" as="geometry" />
        </mxCell>
        <mxCell id="PBEkfZMtMf-Mp05Idrqj-6" value="" style="rounded=1;whiteSpace=wrap;html=1;strokeWidth=0;fillColor=#F2F2F2;strokeColor=#FFFFFF;" parent="PBEkfZMtMf-Mp05Idrqj-1" vertex="1">
          <mxGeometry x="247" y="299" width="127" height="112" as="geometry" />
        </mxCell>
        <mxCell id="PBEkfZMtMf-Mp05Idrqj-7" value="" style="image;aspect=fixed;perimeter=ellipsePerimeter;html=1;align=center;shadow=0;dashed=0;spacingTop=3;image=img/lib/active_directory/internet_cloud.svg;strokeWidth=5;imageBackground=none;imageBorder=none;opacity=70;rounded=1;" parent="PBEkfZMtMf-Mp05Idrqj-1" vertex="1">
          <mxGeometry x="923.5" y="132" width="132" height="83.16" as="geometry" />
        </mxCell>
        <mxCell id="PBEkfZMtMf-Mp05Idrqj-8" value="" style="image;aspect=fixed;perimeter=ellipsePerimeter;html=1;align=center;shadow=0;dashed=0;spacingTop=3;image=img/lib/active_directory/internet_cloud.svg;rounded=1;" parent="PBEkfZMtMf-Mp05Idrqj-1" vertex="1">
          <mxGeometry x="794.5" y="132" width="132" height="83.16" as="geometry" />
        </mxCell>
        <mxCell id="PBEkfZMtMf-Mp05Idrqj-9" value="" style="points=[[0.015,0.015,0],[0.985,0.015,0],[0.985,0.985,0],[0.015,0.985,0],[0.25,0,0],[0.5,0,0],[0.75,0,0],[1,0.25,0],[1,0.5,0],[1,0.75,0],[0.75,1,0],[0.5,1,0],[0.25,1,0],[0,0.75,0],[0,0.5,0],[0,0.25,0]];verticalLabelPosition=bottom;html=1;verticalAlign=top;aspect=fixed;align=center;pointerEvents=1;shape=mxgraph.cisco19.rect;prIcon=workgroup_switch;fillColor=#FAFAFA;strokeColor=#005073;rounded=1;shadow=1;" parent="PBEkfZMtMf-Mp05Idrqj-1" vertex="1">
          <mxGeometry x="284" y="339" width="50" height="50" as="geometry" />
        </mxCell>
        <mxCell id="PBEkfZMtMf-Mp05Idrqj-10" style="edgeStyle=none;rounded=1;orthogonalLoop=1;jettySize=auto;html=1;exitX=0.5;exitY=1;exitDx=0;exitDy=0;exitPerimeter=0;entryX=0.5;entryY=0;entryDx=0;entryDy=0;entryPerimeter=0;endArrow=none;endFill=0;strokeWidth=2;" parent="PBEkfZMtMf-Mp05Idrqj-1" source="PBEkfZMtMf-Mp05Idrqj-9" target="PBEkfZMtMf-Mp05Idrqj-16" edge="1">
          <mxGeometry relative="1" as="geometry" />
        </mxCell>
        <mxCell id="PBEkfZMtMf-Mp05Idrqj-11" value="port 24" style="edgeLabel;html=1;align=center;verticalAlign=middle;resizable=0;points=[];labelBackgroundColor=#F2F2F2;fontSize=7;" parent="PBEkfZMtMf-Mp05Idrqj-10" vertex="1" connectable="0">
          <mxGeometry x="-0.8182" relative="1" as="geometry">
            <mxPoint y="-2" as="offset" />
          </mxGeometry>
        </mxCell>
        <mxCell id="PBEkfZMtMf-Mp05Idrqj-12" value="Gi1/0/38" style="edgeLabel;html=1;align=center;verticalAlign=middle;resizable=0;points=[];fontSize=7;labelBackgroundColor=#F2F2F2;" parent="PBEkfZMtMf-Mp05Idrqj-10" vertex="1" connectable="0">
          <mxGeometry x="0.7749" y="-2" relative="1" as="geometry">
            <mxPoint x="2" y="3" as="offset" />
          </mxGeometry>
        </mxCell>
        <mxCell id="PBEkfZMtMf-Mp05Idrqj-13" style="edgeStyle=none;rounded=1;orthogonalLoop=1;jettySize=auto;html=1;exitX=0;exitY=0.5;exitDx=0;exitDy=0;exitPerimeter=0;entryX=1;entryY=0.5;entryDx=0;entryDy=0;entryPerimeter=0;endArrow=none;endFill=0;strokeWidth=2;" parent="PBEkfZMtMf-Mp05Idrqj-1" source="PBEkfZMtMf-Mp05Idrqj-17" target="PBEkfZMtMf-Mp05Idrqj-16" edge="1">
          <mxGeometry relative="1" as="geometry">
            <mxPoint x="319" y="346" as="sourcePoint" />
            <mxPoint x="319" y="486" as="targetPoint" />
          </mxGeometry>
        </mxCell>
        <mxCell id="PBEkfZMtMf-Mp05Idrqj-14" value="&lt;font style=&quot;font-size: 7px;&quot;&gt;port 24&lt;/font&gt;" style="edgeLabel;html=1;align=center;verticalAlign=middle;resizable=0;points=[];labelBackgroundColor=#F2F2F2;" parent="PBEkfZMtMf-Mp05Idrqj-13" vertex="1" connectable="0">
          <mxGeometry x="-0.507" relative="1" as="geometry">
            <mxPoint x="5" y="-2" as="offset" />
          </mxGeometry>
        </mxCell>
        <mxCell id="PBEkfZMtMf-Mp05Idrqj-15" value="Gi1/0/37" style="edgeLabel;html=1;align=center;verticalAlign=middle;resizable=0;points=[];labelBackgroundColor=#F2F2F2;fontSize=7;" parent="PBEkfZMtMf-Mp05Idrqj-13" vertex="1" connectable="0">
          <mxGeometry x="0.4848" relative="1" as="geometry">
            <mxPoint x="-6" as="offset" />
          </mxGeometry>
        </mxCell>
        <mxCell id="PBEkfZMtMf-Mp05Idrqj-16" value="" style="points=[[0.015,0.015,0],[0.985,0.015,0],[0.985,0.985,0],[0.015,0.985,0],[0.25,0,0],[0.5,0,0],[0.75,0,0],[1,0.25,0],[1,0.5,0],[1,0.75,0],[0.75,1,0],[0.5,1,0],[0.25,1,0],[0,0.75,0],[0,0.5,0],[0,0.25,0]];verticalLabelPosition=bottom;html=1;verticalAlign=top;aspect=fixed;align=center;pointerEvents=1;shape=mxgraph.cisco19.rect;prIcon=workgroup_switch;fillColor=#FAFAFA;strokeColor=#005073;rounded=1;shadow=1;" parent="PBEkfZMtMf-Mp05Idrqj-1" vertex="1">
          <mxGeometry x="284" y="476" width="50" height="50" as="geometry" />
        </mxCell>
        <mxCell id="PBEkfZMtMf-Mp05Idrqj-17" value="" style="points=[[0.015,0.015,0],[0.985,0.015,0],[0.985,0.985,0],[0.015,0.985,0],[0.25,0,0],[0.5,0,0],[0.75,0,0],[1,0.25,0],[1,0.5,0],[1,0.75,0],[0.75,1,0],[0.5,1,0],[0.25,1,0],[0,0.75,0],[0,0.5,0],[0,0.25,0]];verticalLabelPosition=bottom;html=1;verticalAlign=top;aspect=fixed;align=center;pointerEvents=1;shape=mxgraph.cisco19.rect;prIcon=workgroup_switch;fillColor=#FAFAFA;strokeColor=#005073;rounded=1;shadow=1;" parent="PBEkfZMtMf-Mp05Idrqj-1" vertex="1">
          <mxGeometry x="98" y="476" width="50" height="50" as="geometry" />
        </mxCell>
        <mxCell id="PBEkfZMtMf-Mp05Idrqj-18" style="edgeStyle=none;rounded=1;orthogonalLoop=1;jettySize=auto;html=1;entryX=1;entryY=0.5;entryDx=0;entryDy=0;entryPerimeter=0;endArrow=none;endFill=0;exitX=0;exitY=0.5;exitDx=0;exitDy=0;strokeColor=#FF9933;strokeWidth=3;opacity=70;" parent="PBEkfZMtMf-Mp05Idrqj-1" target="PBEkfZMtMf-Mp05Idrqj-16" edge="1">
          <mxGeometry relative="1" as="geometry">
            <mxPoint x="571" y="500" as="sourcePoint" />
            <mxPoint x="319" y="486" as="targetPoint" />
          </mxGeometry>
        </mxCell>
        <mxCell id="PBEkfZMtMf-Mp05Idrqj-19" value="Gi1/0/47" style="edgeLabel;html=1;align=center;verticalAlign=middle;resizable=0;points=[];fontSize=7;labelBackgroundColor=#F2F2F2;" parent="PBEkfZMtMf-Mp05Idrqj-18" vertex="1" connectable="0">
          <mxGeometry x="0.8967" y="-1" relative="1" as="geometry">
            <mxPoint x="3" y="1" as="offset" />
          </mxGeometry>
        </mxCell>
        <mxCell id="PBEkfZMtMf-Mp05Idrqj-20" value="&lt;font style=&quot;color: rgb(102, 102, 102);&quot;&gt;MPLS CAMTEL&lt;br&gt;100 Mbps&lt;/font&gt;" style="text;strokeColor=none;align=center;fillColor=none;html=1;verticalAlign=middle;whiteSpace=wrap;rounded=1;" parent="PBEkfZMtMf-Mp05Idrqj-1" vertex="1">
          <mxGeometry x="960.5" y="158" width="60" height="30" as="geometry" />
        </mxCell>
        <mxCell id="PBEkfZMtMf-Mp05Idrqj-21" value="&lt;font style=&quot;color: rgb(102, 102, 102);&quot;&gt;LS CAMTEL&lt;br&gt;100 Mbps&lt;/font&gt;" style="text;strokeColor=none;align=center;fillColor=none;html=1;verticalAlign=middle;whiteSpace=wrap;rounded=1;" parent="PBEkfZMtMf-Mp05Idrqj-1" vertex="1">
          <mxGeometry x="830.5" y="157.57999999999993" width="60" height="30" as="geometry" />
        </mxCell>
        <mxCell id="PBEkfZMtMf-Mp05Idrqj-22" value="&lt;b style=&quot;font-size: 10px;&quot;&gt;Room IT&lt;/b&gt;&lt;br style=&quot;font-size: 10px;&quot;&gt;Dlink DGS-1100&lt;br style=&quot;font-size: 10px;&quot;&gt;&lt;font color=&quot;#0000ff&quot; style=&quot;font-size: 10px;&quot;&gt;10.0.0.11/24&lt;/font&gt;" style="text;strokeColor=none;align=center;fillColor=none;html=1;verticalAlign=middle;whiteSpace=wrap;rounded=1;fontSize=10;" parent="PBEkfZMtMf-Mp05Idrqj-1" vertex="1">
          <mxGeometry x="71" y="438" width="114" height="30" as="geometry" />
        </mxCell>
        <mxCell id="PBEkfZMtMf-Mp05Idrqj-23" value="&lt;b&gt;RDC&lt;/b&gt;&lt;br style=&quot;font-size: 10px;&quot;&gt;DELL N3048&lt;br style=&quot;font-size: 10px;&quot;&gt;&lt;font color=&quot;#0000ff&quot; style=&quot;font-size: 10px;&quot;&gt;10.0.0.10/24&lt;/font&gt;" style="text;strokeColor=none;align=center;fillColor=none;html=1;verticalAlign=middle;whiteSpace=wrap;rounded=1;fontSize=10;" parent="PBEkfZMtMf-Mp05Idrqj-1" vertex="1">
          <mxGeometry x="252" y="537" width="114" height="30" as="geometry" />
        </mxCell>
        <mxCell id="PBEkfZMtMf-Mp05Idrqj-24" value="&lt;b&gt;Floor 01&lt;/b&gt;&lt;br style=&quot;font-size: 10px;&quot;&gt;Dlink DGS-1100&lt;br style=&quot;font-size: 10px;&quot;&gt;&lt;font color=&quot;#0000ff&quot; style=&quot;font-size: 10px;&quot;&gt;10.0.0.9/24&lt;/font&gt;" style="text;strokeColor=none;align=center;fillColor=none;html=1;verticalAlign=middle;whiteSpace=wrap;rounded=1;fontSize=10;" parent="PBEkfZMtMf-Mp05Idrqj-1" vertex="1">
          <mxGeometry x="253" y="290" width="114" height="30" as="geometry" />
        </mxCell>
        <mxCell id="PBEkfZMtMf-Mp05Idrqj-25" value="&lt;b&gt;VRTX Server&lt;/b&gt;" style="text;strokeColor=none;align=center;fillColor=none;html=1;verticalAlign=middle;whiteSpace=wrap;rounded=1;fontSize=10;textShadow=1;" parent="PBEkfZMtMf-Mp05Idrqj-1" vertex="1">
          <mxGeometry x="657" y="332" width="114" height="30" as="geometry" />
        </mxCell>
        <mxCell id="PBEkfZMtMf-Mp05Idrqj-26" value="&lt;br style=&quot;font-size: 10px;&quot;&gt;&lt;div style=&quot;&quot;&gt;&lt;b&gt;BIR IGW&lt;/b&gt;&lt;/div&gt;&lt;div style=&quot;font-size: 9px;&quot;&gt;&lt;span style=&quot;background-color: initial;&quot;&gt;Mikrotik CCR1036&lt;/span&gt;&lt;/div&gt;&lt;font color=&quot;#0000ff&quot; style=&quot;font-size: 8px;&quot;&gt;&lt;font style=&quot;font-size: 9px;&quot;&gt;1&lt;/font&gt;&lt;font style=&quot;font-size: 8px;&quot;&gt;&lt;font style=&quot;font-size: 8px;&quot;&gt;0.0.0.254/24&amp;nbsp;&lt;br&gt;&lt;/font&gt;&lt;/font&gt;&lt;/font&gt;" style="text;strokeColor=none;align=left;fillColor=none;html=1;verticalAlign=middle;whiteSpace=wrap;rounded=1;fontSize=10;textShadow=1;" parent="PBEkfZMtMf-Mp05Idrqj-1" vertex="1">
          <mxGeometry x="926.5" y="372" width="174.5" height="30" as="geometry" />
        </mxCell>
        <mxCell id="PBEkfZMtMf-Mp05Idrqj-27" value="&lt;b&gt;Asus Server&lt;/b&gt;" style="text;strokeColor=none;align=center;fillColor=none;html=1;verticalAlign=middle;whiteSpace=wrap;rounded=1;fontSize=10;textShadow=1;" parent="PBEkfZMtMf-Mp05Idrqj-1" vertex="1">
          <mxGeometry x="662.5" y="623.5" width="114" height="30" as="geometry" />
        </mxCell>
        <mxCell id="PBEkfZMtMf-Mp05Idrqj-28" value="" style="image;html=1;image=img/lib/clip_art/networking/Print_Server_128x128.png;rounded=1;shadow=1;" parent="PBEkfZMtMf-Mp05Idrqj-1" vertex="1">
          <mxGeometry x="906.5" y="176" width="56" height="63" as="geometry" />
        </mxCell>
        <mxCell id="PBEkfZMtMf-Mp05Idrqj-29" style="edgeStyle=none;rounded=1;orthogonalLoop=1;jettySize=auto;html=1;endArrow=none;endFill=0;" parent="PBEkfZMtMf-Mp05Idrqj-1" source="PBEkfZMtMf-Mp05Idrqj-28" target="PBEkfZMtMf-Mp05Idrqj-62" edge="1">
          <mxGeometry relative="1" as="geometry">
            <mxPoint x="935.5" y="245" as="sourcePoint" />
            <mxPoint x="935.5" y="329" as="targetPoint" />
          </mxGeometry>
        </mxCell>
        <mxCell id="PBEkfZMtMf-Mp05Idrqj-30" value="RAD Modem" style="text;strokeColor=none;align=right;fillColor=none;html=1;verticalAlign=middle;whiteSpace=wrap;rounded=1;fontSize=10;textShadow=1;" parent="PBEkfZMtMf-Mp05Idrqj-1" vertex="1">
          <mxGeometry x="857" y="217" width="114" height="30" as="geometry" />
        </mxCell>
        <mxCell id="PBEkfZMtMf-Mp05Idrqj-31" value="&lt;b&gt;ROOM IT&lt;/b&gt;" style="text;strokeColor=none;align=center;fillColor=none;html=1;verticalAlign=middle;whiteSpace=wrap;rounded=1;fontSize=10;fontFamily=Verdana;fontColor=#FF3399;textShadow=1;" parent="PBEkfZMtMf-Mp05Idrqj-1" vertex="1">
          <mxGeometry x="66" y="536" width="114" height="30" as="geometry" />
        </mxCell>
        <mxCell id="PBEkfZMtMf-Mp05Idrqj-32" value="&lt;b&gt;RDC&lt;/b&gt;" style="text;strokeColor=none;align=center;fillColor=none;html=1;verticalAlign=middle;whiteSpace=wrap;rounded=1;fontSize=10;fontFamily=Verdana;fontColor=#FF3399;textShadow=1;" parent="PBEkfZMtMf-Mp05Idrqj-1" vertex="1">
          <mxGeometry x="314" y="519" width="114" height="30" as="geometry" />
        </mxCell>
        <mxCell id="PBEkfZMtMf-Mp05Idrqj-33" value="&lt;b&gt;FLOOR 01&lt;/b&gt;" style="text;strokeColor=none;align=center;fillColor=none;html=1;verticalAlign=middle;whiteSpace=wrap;rounded=1;fontSize=11;fontFamily=Verdana;fontColor=#FF3399;textShadow=1;" parent="PBEkfZMtMf-Mp05Idrqj-1" vertex="1">
          <mxGeometry x="321" y="349" width="114" height="30" as="geometry" />
        </mxCell>
        <mxCell id="PBEkfZMtMf-Mp05Idrqj-34" value="&lt;b style=&quot;font-size: 12px;&quot;&gt;BIR DATAROOM&lt;/b&gt;" style="text;strokeColor=none;align=center;fillColor=none;html=1;verticalAlign=middle;whiteSpace=wrap;rounded=1;fontSize=12;fontFamily=Verdana;fontColor=#FF3399;textShadow=1;" parent="PBEkfZMtMf-Mp05Idrqj-1" vertex="1">
          <mxGeometry x="780" y="677" width="114" height="30" as="geometry" />
        </mxCell>
        <mxCell id="PBEkfZMtMf-Mp05Idrqj-35" value="&lt;b style=&quot;font-size: 12px;&quot;&gt;OFFICE BUILDING&amp;nbsp;&lt;/b&gt;" style="text;strokeColor=none;align=center;fillColor=none;html=1;verticalAlign=middle;whiteSpace=wrap;rounded=1;fontSize=12;fontFamily=Verdana;fontColor=#FF3399;textShadow=1;" parent="PBEkfZMtMf-Mp05Idrqj-1" vertex="1">
          <mxGeometry x="186.5" y="604" width="114" height="30" as="geometry" />
        </mxCell>
        <mxCell id="PBEkfZMtMf-Mp05Idrqj-36" value="" style="edgeStyle=none;rounded=1;orthogonalLoop=1;jettySize=auto;html=1;entryX=1;entryY=0.5;entryDx=0;entryDy=0;entryPerimeter=0;endArrow=none;endFill=0;exitX=0;exitY=0.5;exitDx=0;exitDy=0;strokeColor=#FF9933;strokeWidth=3;opacity=70;" parent="PBEkfZMtMf-Mp05Idrqj-1" source="PBEkfZMtMf-Mp05Idrqj-54" edge="1">
          <mxGeometry relative="1" as="geometry">
            <mxPoint x="821" y="501" as="sourcePoint" />
            <mxPoint x="563" y="500" as="targetPoint" />
          </mxGeometry>
        </mxCell>
        <mxCell id="PBEkfZMtMf-Mp05Idrqj-37" value="&lt;span style=&quot;&quot;&gt;&lt;font style=&quot;font-size: 7px;&quot;&gt;Gi0/1&lt;/font&gt;&lt;/span&gt;" style="edgeLabel;html=1;align=center;verticalAlign=middle;resizable=0;points=[];labelBackgroundColor=#FFFFFF;" parent="PBEkfZMtMf-Mp05Idrqj-36" vertex="1" connectable="0">
          <mxGeometry x="-0.8583" relative="1" as="geometry">
            <mxPoint x="-4" y="-2" as="offset" />
          </mxGeometry>
        </mxCell>
        <mxCell id="PBEkfZMtMf-Mp05Idrqj-38" value="" style="rounded=1;whiteSpace=wrap;html=1;shadow=1;glass=1;strokeWidth=3;strokeColor=#666666;" parent="PBEkfZMtMf-Mp05Idrqj-1" vertex="1">
          <mxGeometry x="50" y="733" width="200" height="71" as="geometry" />
        </mxCell>
        <mxCell id="PBEkfZMtMf-Mp05Idrqj-39" value="" style="image;html=1;image=img/lib/clip_art/networking/Router_Icon_128x128.png;rounded=1;" parent="PBEkfZMtMf-Mp05Idrqj-1" vertex="1">
          <mxGeometry x="168" y="744.5" width="47" height="44" as="geometry" />
        </mxCell>
        <mxCell id="PBEkfZMtMf-Mp05Idrqj-40" value="&lt;span&gt;Router&lt;/span&gt;" style="text;strokeColor=none;align=center;fillColor=none;html=1;verticalAlign=middle;whiteSpace=wrap;rounded=1;fontSize=10;fontFamily=Verdana;fontColor=#4D4D4D;fontStyle=0;" parent="PBEkfZMtMf-Mp05Idrqj-1" vertex="1">
          <mxGeometry x="164" y="782" width="52" height="12" as="geometry" />
        </mxCell>
        <mxCell id="PBEkfZMtMf-Mp05Idrqj-41" value="" style="points=[[0.015,0.015,0],[0.985,0.015,0],[0.985,0.985,0],[0.015,0.985,0],[0.25,0,0],[0.5,0,0],[0.75,0,0],[1,0.25,0],[1,0.5,0],[1,0.75,0],[0.75,1,0],[0.5,1,0],[0.25,1,0],[0,0.75,0],[0,0.5,0],[0,0.25,0]];verticalLabelPosition=bottom;html=1;verticalAlign=top;aspect=fixed;align=center;pointerEvents=1;shape=mxgraph.cisco19.rect;prIcon=workgroup_switch;fillColor=#FAFAFA;strokeColor=#005073;rounded=1;" parent="PBEkfZMtMf-Mp05Idrqj-1" vertex="1">
          <mxGeometry x="87" y="746" width="33" height="33" as="geometry" />
        </mxCell>
        <mxCell id="PBEkfZMtMf-Mp05Idrqj-42" value="&lt;span&gt;Switch&lt;/span&gt;" style="text;strokeColor=none;align=center;fillColor=none;html=1;verticalAlign=middle;whiteSpace=wrap;rounded=1;fontSize=10;fontFamily=Verdana;fontColor=#4D4D4D;fontStyle=0;" parent="PBEkfZMtMf-Mp05Idrqj-1" vertex="1">
          <mxGeometry x="74" y="782" width="61" height="12" as="geometry" />
        </mxCell>
        <mxCell id="PBEkfZMtMf-Mp05Idrqj-43" value="&lt;b&gt;NOC&lt;br&gt;Monitoring&amp;nbsp;&lt;br&gt;&lt;/b&gt;" style="text;strokeColor=none;align=center;fillColor=none;html=1;verticalAlign=middle;whiteSpace=wrap;rounded=1;fontSize=10;textShadow=1;" parent="PBEkfZMtMf-Mp05Idrqj-1" vertex="1">
          <mxGeometry x="881" y="528" width="114" height="30" as="geometry" />
        </mxCell>
        <mxCell id="PBEkfZMtMf-Mp05Idrqj-44" value="" style="edgeStyle=none;rounded=1;orthogonalLoop=1;jettySize=auto;html=1;endArrow=none;endFill=0;exitX=0.75;exitY=0;exitDx=0;exitDy=0;entryX=0;entryY=0.5;entryDx=0;entryDy=0;strokeWidth=1;exitPerimeter=0;" parent="PBEkfZMtMf-Mp05Idrqj-1" source="PBEkfZMtMf-Mp05Idrqj-54" target="PBEkfZMtMf-Mp05Idrqj-62" edge="1">
          <mxGeometry relative="1" as="geometry">
            <mxPoint x="739" y="466" as="sourcePoint" />
            <mxPoint x="911" y="458.837563451777" as="targetPoint" />
          </mxGeometry>
        </mxCell>
        <mxCell id="PBEkfZMtMf-Mp05Idrqj-45" value="fa0/1" style="edgeLabel;html=1;align=center;verticalAlign=middle;resizable=0;points=[];fontSize=7;labelBackgroundColor=#F2F2F2;" parent="PBEkfZMtMf-Mp05Idrqj-44" vertex="1" connectable="0">
          <mxGeometry x="-0.8652" relative="1" as="geometry">
            <mxPoint x="-7" y="3" as="offset" />
          </mxGeometry>
        </mxCell>
        <mxCell id="PBEkfZMtMf-Mp05Idrqj-46" value="eth5" style="edgeLabel;html=1;align=center;verticalAlign=middle;resizable=0;points=[];labelBackgroundColor=#F2F2F2;fontSize=7;" parent="PBEkfZMtMf-Mp05Idrqj-44" vertex="1" connectable="0">
          <mxGeometry x="0.91" y="1" relative="1" as="geometry">
            <mxPoint x="-2" as="offset" />
          </mxGeometry>
        </mxCell>
        <mxCell id="PBEkfZMtMf-Mp05Idrqj-47" value="&lt;b&gt;Fiber&lt;/b&gt;" style="text;strokeColor=none;align=center;fillColor=none;html=1;verticalAlign=middle;whiteSpace=wrap;rounded=1;fontSize=9;fontFamily=Verdana;fontColor=#FF3399;" parent="PBEkfZMtMf-Mp05Idrqj-1" vertex="1">
          <mxGeometry x="462" y="485" width="114" height="30" as="geometry" />
        </mxCell>
        <mxCell id="PBEkfZMtMf-Mp05Idrqj-48" value="" style="edgeStyle=none;rounded=1;orthogonalLoop=1;jettySize=auto;html=1;endArrow=none;endFill=0;exitX=0.504;exitY=0.487;exitDx=0;exitDy=0;exitPerimeter=0;entryX=0.46;entryY=0.543;entryDx=0;entryDy=0;entryPerimeter=0;" parent="PBEkfZMtMf-Mp05Idrqj-1" source="PBEkfZMtMf-Mp05Idrqj-54" target="PBEkfZMtMf-Mp05Idrqj-50" edge="1">
          <mxGeometry relative="1" as="geometry">
            <mxPoint x="715.1300000000001" y="389" as="sourcePoint" />
            <mxPoint x="715" y="599" as="targetPoint" />
          </mxGeometry>
        </mxCell>
        <mxCell id="PBEkfZMtMf-Mp05Idrqj-49" value="fa0/15" style="edgeLabel;html=1;align=center;verticalAlign=middle;resizable=0;points=[];labelBackgroundColor=#F2F2F2;fontSize=7;" parent="PBEkfZMtMf-Mp05Idrqj-48" vertex="1" connectable="0">
          <mxGeometry x="-0.4009" relative="1" as="geometry">
            <mxPoint y="-2" as="offset" />
          </mxGeometry>
        </mxCell>
        <mxCell id="PBEkfZMtMf-Mp05Idrqj-50" value="" style="image;html=1;image=img/lib/clip_art/computers/Server_128x128.png;rounded=1;shadow=1;textShadow=1;" parent="PBEkfZMtMf-Mp05Idrqj-1" vertex="1">
          <mxGeometry x="692.5" y="591.5" width="47.5" height="47.5" as="geometry" />
        </mxCell>
        <mxCell id="PBEkfZMtMf-Mp05Idrqj-51" value="" style="edgeStyle=none;rounded=1;orthogonalLoop=1;jettySize=auto;html=1;endArrow=none;endFill=0;exitX=0.62;exitY=0.64;exitDx=0;exitDy=0;exitPerimeter=0;" parent="PBEkfZMtMf-Mp05Idrqj-1" source="PBEkfZMtMf-Mp05Idrqj-54" target="PBEkfZMtMf-Mp05Idrqj-53" edge="1">
          <mxGeometry relative="1" as="geometry">
            <mxPoint x="739" y="512" as="sourcePoint" />
            <mxPoint x="929" y="511" as="targetPoint" />
          </mxGeometry>
        </mxCell>
        <mxCell id="PBEkfZMtMf-Mp05Idrqj-52" value="fa0/15" style="edgeLabel;html=1;align=center;verticalAlign=middle;resizable=0;points=[];labelBackgroundColor=#F2F2F2;fontSize=7;" parent="PBEkfZMtMf-Mp05Idrqj-51" vertex="1" connectable="0">
          <mxGeometry x="-0.701" y="-1" relative="1" as="geometry">
            <mxPoint x="2" y="-1" as="offset" />
          </mxGeometry>
        </mxCell>
        <mxCell id="PBEkfZMtMf-Mp05Idrqj-53" value="" style="outlineConnect=0;dashed=0;verticalLabelPosition=bottom;verticalAlign=top;align=center;html=1;shape=mxgraph.aws3.worker;fillColor=#D9A741;gradientColor=none;" parent="PBEkfZMtMf-Mp05Idrqj-1" vertex="1">
          <mxGeometry x="917.25" y="487" width="39.5" height="39" as="geometry" />
        </mxCell>
        <mxCell id="PBEkfZMtMf-Mp05Idrqj-54" value="" style="points=[[0.015,0.015,0],[0.985,0.015,0],[0.985,0.985,0],[0.015,0.985,0],[0.25,0,0],[0.5,0,0],[0.75,0,0],[1,0.25,0],[1,0.5,0],[1,0.75,0],[0.75,1,0],[0.5,1,0],[0.25,1,0],[0,0.75,0],[0,0.5,0],[0,0.25,0]];verticalLabelPosition=bottom;html=1;verticalAlign=top;aspect=fixed;align=center;pointerEvents=1;shape=mxgraph.cisco19.rect;prIcon=workgroup_switch;fillColor=#FAFAFA;strokeColor=#005073;rounded=1;shadow=1;" parent="PBEkfZMtMf-Mp05Idrqj-1" vertex="1">
          <mxGeometry x="689" y="474" width="50" height="50" as="geometry" />
        </mxCell>
        <mxCell id="PBEkfZMtMf-Mp05Idrqj-55" value="" style="edgeStyle=none;rounded=1;orthogonalLoop=1;jettySize=auto;html=1;endArrow=none;endFill=0;exitX=0.985;exitY=0.015;exitDx=0;exitDy=0;exitPerimeter=0;entryX=0.091;entryY=0.641;entryDx=0;entryDy=0;entryPerimeter=0;" parent="PBEkfZMtMf-Mp05Idrqj-1" source="PBEkfZMtMf-Mp05Idrqj-54" target="PBEkfZMtMf-Mp05Idrqj-62" edge="1">
          <mxGeometry relative="1" as="geometry">
            <mxPoint x="756.48" y="470.8299999999999" as="sourcePoint" />
            <mxPoint x="919.5" y="374" as="targetPoint" />
          </mxGeometry>
        </mxCell>
        <mxCell id="PBEkfZMtMf-Mp05Idrqj-56" value="eth2" style="edgeLabel;html=1;align=center;verticalAlign=middle;resizable=0;points=[];labelBackgroundColor=#F2F2F2;fontSize=7;" parent="PBEkfZMtMf-Mp05Idrqj-55" vertex="1" connectable="0">
          <mxGeometry x="0.8586" relative="1" as="geometry">
            <mxPoint as="offset" />
          </mxGeometry>
        </mxCell>
        <mxCell id="PBEkfZMtMf-Mp05Idrqj-57" value="fa0/16" style="edgeLabel;html=1;align=center;verticalAlign=middle;resizable=0;points=[];fontSize=7;labelBackgroundColor=#F2F2F2;" parent="PBEkfZMtMf-Mp05Idrqj-55" vertex="1" connectable="0">
          <mxGeometry x="-0.9276" relative="1" as="geometry">
            <mxPoint x="6" y="-3" as="offset" />
          </mxGeometry>
        </mxCell>
        <mxCell id="PBEkfZMtMf-Mp05Idrqj-58" value="&lt;br style=&quot;font-size: 10px;&quot;&gt;&lt;b&gt;CISCO 2960&lt;br style=&quot;font-size: 10px;&quot;&gt;&lt;/b&gt;&lt;font color=&quot;#0000ff&quot; style=&quot;font-size: 10px;&quot;&gt;10.0.0.1/24&lt;/font&gt;" style="text;strokeColor=none;align=center;fillColor=none;html=1;verticalAlign=middle;whiteSpace=wrap;rounded=1;fontSize=10;textShadow=1;" parent="PBEkfZMtMf-Mp05Idrqj-1" vertex="1">
          <mxGeometry x="711" y="519" width="114" height="30" as="geometry" />
        </mxCell>
        <mxCell id="PBEkfZMtMf-Mp05Idrqj-59" value="" style="edgeStyle=none;rounded=1;orthogonalLoop=1;jettySize=auto;html=1;endArrow=none;endFill=0;entryX=0.674;entryY=0.355;entryDx=0;entryDy=0;entryPerimeter=0;" parent="PBEkfZMtMf-Mp05Idrqj-1" source="PBEkfZMtMf-Mp05Idrqj-54" target="PBEkfZMtMf-Mp05Idrqj-62" edge="1">
          <mxGeometry relative="1" as="geometry">
            <mxPoint x="742" y="480" as="sourcePoint" />
            <mxPoint x="920" y="366" as="targetPoint" />
          </mxGeometry>
        </mxCell>
        <mxCell id="PBEkfZMtMf-Mp05Idrqj-60" value="eth6" style="edgeLabel;html=1;align=center;verticalAlign=middle;resizable=0;points=[];labelBackgroundColor=#F2F2F2;fontSize=7;" parent="PBEkfZMtMf-Mp05Idrqj-59" vertex="1" connectable="0">
          <mxGeometry x="0.8586" relative="1" as="geometry">
            <mxPoint x="-23" y="17" as="offset" />
          </mxGeometry>
        </mxCell>
        <mxCell id="PBEkfZMtMf-Mp05Idrqj-61" value="fa0/17" style="edgeLabel;html=1;align=center;verticalAlign=middle;resizable=0;points=[];fontSize=7;labelBackgroundColor=#F2F2F2;" parent="PBEkfZMtMf-Mp05Idrqj-59" vertex="1" connectable="0">
          <mxGeometry x="-0.9276" relative="1" as="geometry">
            <mxPoint x="4" as="offset" />
          </mxGeometry>
        </mxCell>
        <mxCell id="PBEkfZMtMf-Mp05Idrqj-62" value="" style="image;html=1;image=img/lib/clip_art/networking/Router_Icon_128x128.png;rounded=1;shadow=1;textShadow=1;" parent="PBEkfZMtMf-Mp05Idrqj-1" vertex="1">
          <mxGeometry x="912" y="341" width="46" height="31" as="geometry" />
        </mxCell>
        <mxCell id="PBEkfZMtMf-Mp05Idrqj-63" value="" style="edgeStyle=none;rounded=1;orthogonalLoop=1;jettySize=auto;html=1;endArrow=none;endFill=0;exitX=0.483;exitY=0.406;exitDx=0;exitDy=0;exitPerimeter=0;" parent="PBEkfZMtMf-Mp05Idrqj-1" source="PBEkfZMtMf-Mp05Idrqj-65" edge="1">
          <mxGeometry relative="1" as="geometry">
            <mxPoint x="713.76" y="409" as="sourcePoint" />
            <mxPoint x="714" y="472" as="targetPoint" />
          </mxGeometry>
        </mxCell>
        <mxCell id="PBEkfZMtMf-Mp05Idrqj-64" value="fa0/14" style="edgeLabel;html=1;align=center;verticalAlign=middle;resizable=0;points=[];fontSize=7;labelBackgroundColor=#F2F2F2;" parent="PBEkfZMtMf-Mp05Idrqj-63" vertex="1" connectable="0">
          <mxGeometry x="0.773" relative="1" as="geometry">
            <mxPoint y="6" as="offset" />
          </mxGeometry>
        </mxCell>
        <mxCell id="PBEkfZMtMf-Mp05Idrqj-65" value="" style="image;html=1;image=img/lib/clip_art/computers/Server_128x128.png;rounded=1;shadow=1;textShadow=1;" parent="PBEkfZMtMf-Mp05Idrqj-1" vertex="1">
          <mxGeometry x="692.5" y="351" width="43.5" height="53" as="geometry" />
        </mxCell>
        <mxCell id="PBEkfZMtMf-Mp05Idrqj-66" value="&lt;font style=&quot;font-size: 17px;&quot; face=&quot;Tahoma&quot;&gt;&lt;b style=&quot;background-color: light-dark(#ffffff, var(--ge-dark-color, #121212));&quot;&gt;DPC OFFICE (Yaounde)&lt;/b&gt;&lt;/font&gt;&lt;div&gt;&lt;br&gt;&lt;/div&gt;&lt;div&gt;&lt;font style=&quot;font-size: 15px; color: rgb(153, 153, 0);&quot;&gt;Backbone Core Network&lt;/font&gt;&lt;/div&gt;" style="rounded=1;whiteSpace=wrap;html=1;shadow=1;glass=1;strokeWidth=3;strokeColor=#666666;" parent="PBEkfZMtMf-Mp05Idrqj-1" vertex="1">
          <mxGeometry x="404" y="16" width="317.5" height="97" as="geometry" />
        </mxCell>
      </root>
    </mxGraphModel>
  </diagram>
  <diagram name="Log_Dist" id="kpc4kP29BTasqdvUUrHt">
    <mxGraphModel dx="1428" dy="743" grid="0" gridSize="10" guides="1" tooltips="1" connect="1" arrows="1" fold="1" page="1" pageScale="1" pageWidth="1169" pageHeight="827" math="0" shadow="0">
      <root>
        <mxCell id="0" />
        <mxCell id="1" parent="0" />
        <mxCell id="sfJ1lC8nEEVltf4GukeA-4" value="&lt;br&gt;&lt;b&gt;CISCO 2960&lt;br&gt;&lt;/b&gt;&lt;font color=&quot;#0000ff&quot;&gt;10.0.0.1/24&lt;/font&gt;" style="text;strokeColor=none;align=center;fillColor=none;html=1;verticalAlign=middle;whiteSpace=wrap;rounded=1;fontSize=8;textShadow=1;" parent="1" vertex="1">
          <mxGeometry x="752" y="523" width="114" height="30" as="geometry" />
        </mxCell>
        <mxCell id="B-XAu3GCHbLe1usWO87O-7" value="" style="image;aspect=fixed;perimeter=ellipsePerimeter;html=1;align=center;shadow=0;dashed=0;spacingTop=3;image=img/lib/active_directory/internet_cloud.svg;rounded=1;" parent="1" vertex="1">
          <mxGeometry x="678.5" y="216.84" width="132" height="83.16" as="geometry" />
        </mxCell>
        <mxCell id="B-XAu3GCHbLe1usWO87O-6" value="" style="image;aspect=fixed;perimeter=ellipsePerimeter;html=1;align=center;shadow=0;dashed=0;spacingTop=3;image=img/lib/active_directory/internet_cloud.svg;strokeWidth=5;imageBackground=none;imageBorder=none;opacity=70;rounded=1;" parent="1" vertex="1">
          <mxGeometry x="807.5" y="216.84" width="132" height="83.16" as="geometry" />
        </mxCell>
        <mxCell id="B-XAu3GCHbLe1usWO87O-15" value="&lt;font style=&quot;color: rgb(102, 102, 102);&quot;&gt;LS CAMTEL&lt;br&gt;100 Mbps&lt;/font&gt;" style="text;strokeColor=none;align=center;fillColor=none;html=1;verticalAlign=middle;whiteSpace=wrap;rounded=1;" parent="1" vertex="1">
          <mxGeometry x="714.5" y="242.41999999999993" width="60" height="30" as="geometry" />
        </mxCell>
        <mxCell id="B-XAu3GCHbLe1usWO87O-14" value="&lt;font style=&quot;color: rgb(102, 102, 102);&quot;&gt;MPLS CAMTEL&lt;br&gt;100 Mbps&lt;/font&gt;" style="text;strokeColor=none;align=center;fillColor=none;html=1;verticalAlign=middle;whiteSpace=wrap;rounded=1;" parent="1" vertex="1">
          <mxGeometry x="844.5" y="242.84" width="60" height="30" as="geometry" />
        </mxCell>
        <mxCell id="B-XAu3GCHbLe1usWO87O-2" value="" style="rounded=1;whiteSpace=wrap;html=1;strokeWidth=0;fillColor=#FFFF99;strokeColor=#FFFFFF;shadow=1;opacity=40;" parent="1" vertex="1">
          <mxGeometry x="691" y="208" width="238" height="374" as="geometry" />
        </mxCell>
        <mxCell id="B-XAu3GCHbLe1usWO87O-3" value="" style="rounded=1;whiteSpace=wrap;html=1;strokeWidth=0;fillColor=#F2F2F2;strokeColor=#FFFFFF;" parent="1" vertex="1">
          <mxGeometry x="350" y="456" width="112" height="106" as="geometry" />
        </mxCell>
        <mxCell id="B-XAu3GCHbLe1usWO87O-4" value="" style="rounded=1;whiteSpace=wrap;html=1;strokeWidth=0;fillColor=#F2F2F2;strokeColor=#FFFFFF;" parent="1" vertex="1">
          <mxGeometry x="164" y="451" width="112" height="106" as="geometry" />
        </mxCell>
        <mxCell id="B-XAu3GCHbLe1usWO87O-5" value="" style="rounded=1;whiteSpace=wrap;html=1;strokeWidth=0;fillColor=#F2F2F2;strokeColor=#FFFFFF;" parent="1" vertex="1">
          <mxGeometry x="342" y="303" width="127" height="112" as="geometry" />
        </mxCell>
        <mxCell id="B-XAu3GCHbLe1usWO87O-8" value="" style="points=[[0.015,0.015,0],[0.985,0.015,0],[0.985,0.985,0],[0.015,0.985,0],[0.25,0,0],[0.5,0,0],[0.75,0,0],[1,0.25,0],[1,0.5,0],[1,0.75,0],[0.75,1,0],[0.5,1,0],[0.25,1,0],[0,0.75,0],[0,0.5,0],[0,0.25,0]];verticalLabelPosition=bottom;html=1;verticalAlign=top;aspect=fixed;align=center;pointerEvents=1;shape=mxgraph.cisco19.rect;prIcon=workgroup_switch;fillColor=#FAFAFA;strokeColor=#005073;rounded=1;shadow=1;" parent="1" vertex="1">
          <mxGeometry x="379" y="343" width="50" height="50" as="geometry" />
        </mxCell>
        <mxCell id="B-XAu3GCHbLe1usWO87O-9" style="edgeStyle=none;rounded=1;orthogonalLoop=1;jettySize=auto;html=1;exitX=0.5;exitY=1;exitDx=0;exitDy=0;exitPerimeter=0;entryX=0.5;entryY=0;entryDx=0;entryDy=0;entryPerimeter=0;endArrow=none;endFill=0;strokeWidth=4;strokeColor=#B3B3B3;" parent="1" source="B-XAu3GCHbLe1usWO87O-8" target="B-XAu3GCHbLe1usWO87O-11" edge="1">
          <mxGeometry relative="1" as="geometry" />
        </mxCell>
        <mxCell id="B-XAu3GCHbLe1usWO87O-10" style="edgeStyle=none;rounded=1;orthogonalLoop=1;jettySize=auto;html=1;exitX=0;exitY=0.5;exitDx=0;exitDy=0;exitPerimeter=0;entryX=1;entryY=0.5;entryDx=0;entryDy=0;entryPerimeter=0;endArrow=none;endFill=0;strokeWidth=4;strokeColor=#999999;" parent="1" source="B-XAu3GCHbLe1usWO87O-12" target="B-XAu3GCHbLe1usWO87O-11" edge="1">
          <mxGeometry relative="1" as="geometry">
            <mxPoint x="414" y="350" as="sourcePoint" />
            <mxPoint x="414" y="490" as="targetPoint" />
          </mxGeometry>
        </mxCell>
        <mxCell id="B-XAu3GCHbLe1usWO87O-11" value="" style="points=[[0.015,0.015,0],[0.985,0.015,0],[0.985,0.985,0],[0.015,0.985,0],[0.25,0,0],[0.5,0,0],[0.75,0,0],[1,0.25,0],[1,0.5,0],[1,0.75,0],[0.75,1,0],[0.5,1,0],[0.25,1,0],[0,0.75,0],[0,0.5,0],[0,0.25,0]];verticalLabelPosition=bottom;html=1;verticalAlign=top;aspect=fixed;align=center;pointerEvents=1;shape=mxgraph.cisco19.rect;prIcon=workgroup_switch;fillColor=#FAFAFA;strokeColor=#005073;rounded=1;shadow=1;" parent="1" vertex="1">
          <mxGeometry x="379" y="480" width="50" height="50" as="geometry" />
        </mxCell>
        <mxCell id="B-XAu3GCHbLe1usWO87O-12" value="" style="points=[[0.015,0.015,0],[0.985,0.015,0],[0.985,0.985,0],[0.015,0.985,0],[0.25,0,0],[0.5,0,0],[0.75,0,0],[1,0.25,0],[1,0.5,0],[1,0.75,0],[0.75,1,0],[0.5,1,0],[0.25,1,0],[0,0.75,0],[0,0.5,0],[0,0.25,0]];verticalLabelPosition=bottom;html=1;verticalAlign=top;aspect=fixed;align=center;pointerEvents=1;shape=mxgraph.cisco19.rect;prIcon=workgroup_switch;fillColor=#FAFAFA;strokeColor=#005073;rounded=1;shadow=1;" parent="1" vertex="1">
          <mxGeometry x="193" y="480" width="50" height="50" as="geometry" />
        </mxCell>
        <mxCell id="B-XAu3GCHbLe1usWO87O-13" style="edgeStyle=none;rounded=1;orthogonalLoop=1;jettySize=auto;html=1;entryX=1;entryY=0.5;entryDx=0;entryDy=0;entryPerimeter=0;endArrow=none;endFill=0;exitX=-0.053;exitY=0.502;exitDx=0;exitDy=0;strokeColor=#999999;strokeWidth=3;opacity=70;exitPerimeter=0;" parent="1" source="B-XAu3GCHbLe1usWO87O-57" target="B-XAu3GCHbLe1usWO87O-11" edge="1">
          <mxGeometry relative="1" as="geometry">
            <mxPoint x="666" y="504" as="sourcePoint" />
            <mxPoint x="414" y="490" as="targetPoint" />
          </mxGeometry>
        </mxCell>
        <mxCell id="B-XAu3GCHbLe1usWO87O-35" value="&lt;b style=&quot;font-size: 12px;&quot;&gt;BIR DATAROOM&lt;/b&gt;" style="text;strokeColor=none;align=center;fillColor=none;html=1;verticalAlign=middle;whiteSpace=wrap;rounded=1;fontSize=12;fontFamily=Verdana;fontColor=#FF3399;textShadow=1;" parent="1" vertex="1">
          <mxGeometry x="760" y="595" width="114" height="30" as="geometry" />
        </mxCell>
        <mxCell id="B-XAu3GCHbLe1usWO87O-39" value="" style="rounded=1;whiteSpace=wrap;html=1;shadow=1;glass=1;strokeWidth=3;strokeColor=#666666;" parent="1" vertex="1">
          <mxGeometry x="50" y="733" width="315" height="71" as="geometry" />
        </mxCell>
        <mxCell id="B-XAu3GCHbLe1usWO87O-40" value="" style="image;html=1;image=img/lib/clip_art/networking/Router_Icon_128x128.png;rounded=1;" parent="1" vertex="1">
          <mxGeometry x="168" y="744.5" width="47" height="44" as="geometry" />
        </mxCell>
        <mxCell id="B-XAu3GCHbLe1usWO87O-41" value="&lt;span&gt;Router&lt;/span&gt;" style="text;strokeColor=none;align=center;fillColor=none;html=1;verticalAlign=middle;whiteSpace=wrap;rounded=1;fontSize=10;fontFamily=Verdana;fontColor=#4D4D4D;fontStyle=0;" parent="1" vertex="1">
          <mxGeometry x="164" y="782" width="52" height="12" as="geometry" />
        </mxCell>
        <mxCell id="B-XAu3GCHbLe1usWO87O-42" value="" style="points=[[0.015,0.015,0],[0.985,0.015,0],[0.985,0.985,0],[0.015,0.985,0],[0.25,0,0],[0.5,0,0],[0.75,0,0],[1,0.25,0],[1,0.5,0],[1,0.75,0],[0.75,1,0],[0.5,1,0],[0.25,1,0],[0,0.75,0],[0,0.5,0],[0,0.25,0]];verticalLabelPosition=bottom;html=1;verticalAlign=top;aspect=fixed;align=center;pointerEvents=1;shape=mxgraph.cisco19.rect;prIcon=workgroup_switch;fillColor=#FAFAFA;strokeColor=#005073;rounded=1;" parent="1" vertex="1">
          <mxGeometry x="87" y="746" width="33" height="33" as="geometry" />
        </mxCell>
        <mxCell id="B-XAu3GCHbLe1usWO87O-43" value="&lt;span&gt;Switch&lt;/span&gt;" style="text;strokeColor=none;align=center;fillColor=none;html=1;verticalAlign=middle;whiteSpace=wrap;rounded=1;fontSize=10;fontFamily=Verdana;fontColor=#4D4D4D;fontStyle=0;" parent="1" vertex="1">
          <mxGeometry x="74" y="782" width="61" height="12" as="geometry" />
        </mxCell>
        <mxCell id="B-XAu3GCHbLe1usWO87O-48" value="" style="edgeStyle=none;rounded=1;orthogonalLoop=1;jettySize=auto;html=1;endArrow=none;endFill=0;entryX=0;entryY=0.5;entryDx=0;entryDy=0;strokeWidth=3;strokeColor=#999999;" parent="1" edge="1">
          <mxGeometry relative="1" as="geometry">
            <mxPoint x="825" y="481.5" as="sourcePoint" />
            <mxPoint x="824.9999999999998" y="300.5000000000001" as="targetPoint" />
          </mxGeometry>
        </mxCell>
        <mxCell id="B-XAu3GCHbLe1usWO87O-65" value="fa0/1" style="edgeLabel;html=1;align=center;verticalAlign=middle;resizable=0;points=[];fontSize=7;labelBackgroundColor=none;" parent="B-XAu3GCHbLe1usWO87O-48" vertex="1" connectable="0">
          <mxGeometry x="-0.8652" relative="1" as="geometry">
            <mxPoint x="4" y="-2" as="offset" />
          </mxGeometry>
        </mxCell>
        <mxCell id="B-XAu3GCHbLe1usWO87O-67" value="eth5" style="edgeLabel;html=1;align=center;verticalAlign=middle;resizable=0;points=[];labelBackgroundColor=none;fontSize=7;" parent="B-XAu3GCHbLe1usWO87O-48" vertex="1" connectable="0">
          <mxGeometry x="0.91" y="1" relative="1" as="geometry">
            <mxPoint x="1" as="offset" />
          </mxGeometry>
        </mxCell>
        <mxCell id="B-XAu3GCHbLe1usWO87O-60" value="" style="edgeStyle=none;rounded=1;orthogonalLoop=1;jettySize=auto;html=1;endArrow=none;endFill=0;entryX=0.091;entryY=0.641;entryDx=0;entryDy=0;entryPerimeter=0;dashed=1;dashPattern=1 1;" parent="1" edge="1">
          <mxGeometry relative="1" as="geometry">
            <mxPoint x="808.62" y="478" as="sourcePoint" />
            <mxPoint x="808.6159999999999" y="298.001" as="targetPoint" />
          </mxGeometry>
        </mxCell>
        <mxCell id="B-XAu3GCHbLe1usWO87O-68" value="eth2" style="edgeLabel;html=1;align=center;verticalAlign=middle;resizable=0;points=[];labelBackgroundColor=none;fontSize=7;" parent="B-XAu3GCHbLe1usWO87O-60" vertex="1" connectable="0">
          <mxGeometry x="0.8586" relative="1" as="geometry">
            <mxPoint x="-1" y="-2" as="offset" />
          </mxGeometry>
        </mxCell>
        <mxCell id="B-XAu3GCHbLe1usWO87O-69" value="fa0/16" style="edgeLabel;html=1;align=center;verticalAlign=middle;resizable=0;points=[];fontSize=7;labelBackgroundColor=none;" parent="B-XAu3GCHbLe1usWO87O-60" vertex="1" connectable="0">
          <mxGeometry x="-0.9276" relative="1" as="geometry">
            <mxPoint y="-5" as="offset" />
          </mxGeometry>
        </mxCell>
        <mxCell id="B-XAu3GCHbLe1usWO87O-70" value="" style="edgeStyle=none;rounded=1;orthogonalLoop=1;jettySize=auto;html=1;endArrow=none;endFill=0;entryX=0.674;entryY=0.355;entryDx=0;entryDy=0;entryPerimeter=0;dashed=1;dashPattern=1 1;" parent="1" edge="1">
          <mxGeometry relative="1" as="geometry">
            <mxPoint x="795" y="480" as="sourcePoint" />
            <mxPoint x="795.2839999999997" y="295.0049999999999" as="targetPoint" />
          </mxGeometry>
        </mxCell>
        <mxCell id="B-XAu3GCHbLe1usWO87O-71" value="eth6" style="edgeLabel;html=1;align=center;verticalAlign=middle;resizable=0;points=[];labelBackgroundColor=none;fontSize=7;" parent="B-XAu3GCHbLe1usWO87O-70" vertex="1" connectable="0">
          <mxGeometry x="0.8586" relative="1" as="geometry">
            <mxPoint x="-4" as="offset" />
          </mxGeometry>
        </mxCell>
        <mxCell id="B-XAu3GCHbLe1usWO87O-72" value="fa0/17" style="edgeLabel;html=1;align=center;verticalAlign=middle;resizable=0;points=[];fontSize=7;labelBackgroundColor=none;" parent="B-XAu3GCHbLe1usWO87O-70" vertex="1" connectable="0">
          <mxGeometry x="-0.9276" relative="1" as="geometry">
            <mxPoint x="-8" y="-7" as="offset" />
          </mxGeometry>
        </mxCell>
        <mxCell id="aNVxPwWBImZR7J3-aEjp-7" value="&lt;font style=&quot;font-size: 17px;&quot; face=&quot;Tahoma&quot;&gt;&lt;b style=&quot;background-color: light-dark(#ffffff, var(--ge-dark-color, #121212));&quot;&gt;DPC OFFICE (Yaounde)&lt;/b&gt;&lt;/font&gt;&lt;div&gt;&lt;br&gt;&lt;/div&gt;&lt;div&gt;&lt;font style=&quot;font-size: 15px; color: rgb(153, 153, 0);&quot;&gt;Physical Core Network&lt;/font&gt;&lt;/div&gt;" style="rounded=1;whiteSpace=wrap;html=1;shadow=1;glass=1;strokeWidth=3;strokeColor=#666666;" parent="1" vertex="1">
          <mxGeometry x="404" y="16" width="317.5" height="97" as="geometry" />
        </mxCell>
        <mxCell id="XuMC9Y6pwFxFQdh2A7_T-1" value="&lt;font style=&quot;color: rgb(77, 77, 77);&quot;&gt;vlan18&lt;/font&gt;" style="rounded=1;whiteSpace=wrap;html=1;fillColor=#f8cecc;strokeColor=#FF9999;fontSize=6;" parent="1" vertex="1">
          <mxGeometry x="801" y="451" width="17" height="8" as="geometry" />
        </mxCell>
        <mxCell id="XuMC9Y6pwFxFQdh2A7_T-2" value="&lt;b style=&quot;font-size: 12px;&quot;&gt;OFFICE BUILDING&amp;nbsp;&lt;/b&gt;" style="text;strokeColor=none;align=center;fillColor=none;html=1;verticalAlign=middle;whiteSpace=wrap;rounded=1;fontSize=12;fontFamily=Verdana;fontColor=#FF3399;textShadow=1;" parent="1" vertex="1">
          <mxGeometry x="270" y="603" width="114" height="30" as="geometry" />
        </mxCell>
        <mxCell id="gS0B6QyTdA2HrkjsRCol-5" value="&lt;font style=&quot;color: rgb(77, 77, 77);&quot;&gt;vlan8&lt;/font&gt;" style="rounded=1;whiteSpace=wrap;html=1;fillColor=#fff2cc;strokeColor=#d6b656;fontSize=6;" parent="1" vertex="1">
          <mxGeometry x="781" y="451" width="17" height="8" as="geometry" />
        </mxCell>
        <mxCell id="B-XAu3GCHbLe1usWO87O-62" value="" style="image;html=1;image=img/lib/clip_art/networking/Router_Icon_128x128.png;rounded=1;shadow=1;textShadow=1;" parent="1" vertex="1">
          <mxGeometry x="787" y="272" width="46" height="31" as="geometry" />
        </mxCell>
        <mxCell id="B-XAu3GCHbLe1usWO87O-57" value="" style="points=[[0.015,0.015,0],[0.985,0.015,0],[0.985,0.985,0],[0.015,0.985,0],[0.25,0,0],[0.5,0,0],[0.75,0,0],[1,0.25,0],[1,0.5,0],[1,0.75,0],[0.75,1,0],[0.5,1,0],[0.25,1,0],[0,0.75,0],[0,0.5,0],[0,0.25,0]];verticalLabelPosition=bottom;html=1;verticalAlign=top;aspect=fixed;align=center;pointerEvents=1;shape=mxgraph.cisco19.rect;prIcon=workgroup_switch;fillColor=#FAFAFA;strokeColor=#005073;rounded=1;shadow=1;" parent="1" vertex="1">
          <mxGeometry x="784" y="478" width="50" height="50" as="geometry" />
        </mxCell>
        <mxCell id="gS0B6QyTdA2HrkjsRCol-9" value="" style="edgeStyle=none;rounded=1;orthogonalLoop=1;jettySize=auto;html=1;endArrow=block;endFill=1;entryX=0.223;entryY=1.011;entryDx=0;entryDy=0;entryPerimeter=0;startArrow=oval;startFill=1;strokeColor=#CCCCCC;dashed=1;dashPattern=1 1;" parent="1" edge="1">
          <mxGeometry relative="1" as="geometry">
            <mxPoint x="890" y="323" as="sourcePoint" />
            <mxPoint x="835.9359999999999" y="294.91476" as="targetPoint" />
          </mxGeometry>
        </mxCell>
        <mxCell id="gS0B6QyTdA2HrkjsRCol-8" value="" style="group" parent="1" vertex="1" connectable="0">
          <mxGeometry x="887" y="307" width="128" height="57" as="geometry" />
        </mxCell>
        <mxCell id="gS0B6QyTdA2HrkjsRCol-7" value="" style="whiteSpace=wrap;html=1;shape=mxgraph.basic.roundRectCallout;dx=31.94;dy=0;size=5;boundedLbl=1;strokeColor=none;fillColor=#f5f5f5;fontColor=#333333;gradientColor=none;shadow=1;" parent="gS0B6QyTdA2HrkjsRCol-8" vertex="1">
          <mxGeometry width="126" height="57" as="geometry" />
        </mxCell>
        <mxCell id="gS0B6QyTdA2HrkjsRCol-6" value="&lt;div style=&quot;line-height: 70%;&quot;&gt;&lt;br style=&quot;font-size: 10px;&quot;&gt;&lt;div&gt;&lt;b&gt;&lt;font style=&quot;color: rgb(102, 102, 102); font-size: 9px;&quot;&gt;BIR IGW&lt;/font&gt;&lt;/b&gt;&lt;/div&gt;&lt;div&gt;&lt;font style=&quot;background-color: transparent; font-size: 9px;&quot;&gt;&amp;nbsp;&lt;/font&gt;&lt;font style=&quot;color: rgb(128, 128, 128);&quot;&gt;&lt;font style=&quot;font-size: 6px; background-color: transparent; line-height: 70%;&quot;&gt;1&lt;/font&gt;&lt;font style=&quot;font-size: 6px; background-color: transparent; line-height: 70%;&quot;&gt;0.0.0.254/24 (Mgmt - vlan60)&lt;/font&gt;&lt;/font&gt;&lt;/div&gt;&lt;font style=&quot;font-size: 6px; line-height: 70%; color: rgb(128, 128, 128);&quot;&gt;&lt;font&gt;&lt;font&gt;&lt;font&gt;&amp;nbsp; 192.168.200.254/23 (Lan Boss - vlan8)&lt;br&gt;&amp;nbsp; 192.168.202.254/24 (Lan Guest - vlan11)&lt;br&gt;&amp;nbsp; 192.169.210.0/23 (Lan Office - vlan10)&lt;/font&gt;&lt;font style=&quot;&quot;&gt;&lt;br&gt;&lt;/font&gt;&lt;/font&gt;&lt;/font&gt;&lt;font&gt;&amp;nbsp; 10.10.2.1/24 (CCTV - vlan18)&lt;/font&gt;&lt;/font&gt;&lt;/div&gt;" style="text;strokeColor=none;align=left;fillColor=none;html=1;verticalAlign=middle;whiteSpace=wrap;rounded=1;fontSize=10;" parent="gS0B6QyTdA2HrkjsRCol-8" vertex="1">
          <mxGeometry x="4" y="8" width="124" height="30" as="geometry" />
        </mxCell>
        <mxCell id="gS0B6QyTdA2HrkjsRCol-12" style="edgeStyle=none;rounded=1;orthogonalLoop=1;jettySize=auto;html=1;entryX=1;entryY=0.5;entryDx=0;entryDy=0;entryPerimeter=0;endArrow=none;endFill=0;strokeColor=#999999;strokeWidth=3;opacity=70;" parent="1" edge="1">
          <mxGeometry relative="1" as="geometry">
            <mxPoint x="334" y="761.21" as="sourcePoint" />
            <mxPoint x="252" y="761.21" as="targetPoint" />
          </mxGeometry>
        </mxCell>
        <mxCell id="gS0B6QyTdA2HrkjsRCol-13" value="&lt;font style=&quot;font-size: 7px; font-weight: normal;&quot;&gt;&amp;nbsp;Trunk 801.Q&lt;/font&gt;" style="edgeLabel;html=1;align=center;verticalAlign=middle;resizable=0;points=[];fontSize=8;fontStyle=1" parent="gS0B6QyTdA2HrkjsRCol-12" vertex="1" connectable="0">
          <mxGeometry x="0.165" relative="1" as="geometry">
            <mxPoint x="6" as="offset" />
          </mxGeometry>
        </mxCell>
        <mxCell id="gS0B6QyTdA2HrkjsRCol-16" style="edgeStyle=none;rounded=1;orthogonalLoop=1;jettySize=auto;html=1;entryX=1;entryY=0.5;entryDx=0;entryDy=0;entryPerimeter=0;endArrow=none;endFill=0;strokeColor=#999999;strokeWidth=1;opacity=70;dashed=1;dashPattern=1 1;" parent="1" edge="1">
          <mxGeometry relative="1" as="geometry">
            <mxPoint x="334" y="775.21" as="sourcePoint" />
            <mxPoint x="252" y="775.21" as="targetPoint" />
          </mxGeometry>
        </mxCell>
        <mxCell id="gS0B6QyTdA2HrkjsRCol-17" value="Access vlan" style="edgeLabel;html=1;align=center;verticalAlign=middle;resizable=0;points=[];fontSize=7;fontStyle=0" parent="gS0B6QyTdA2HrkjsRCol-16" vertex="1" connectable="0">
          <mxGeometry x="0.165" relative="1" as="geometry">
            <mxPoint x="6" as="offset" />
          </mxGeometry>
        </mxCell>
        <mxCell id="sfJ1lC8nEEVltf4GukeA-1" value="&lt;b&gt;Room IT&lt;/b&gt;&lt;br&gt;Dlink DGS-1100&lt;br&gt;&lt;font color=&quot;#0000ff&quot;&gt;10.0.0.11/24&lt;/font&gt;" style="text;strokeColor=none;align=center;fillColor=none;html=1;verticalAlign=middle;whiteSpace=wrap;rounded=1;fontSize=8;" parent="1" vertex="1">
          <mxGeometry x="161" y="540" width="114" height="30" as="geometry" />
        </mxCell>
        <mxCell id="sfJ1lC8nEEVltf4GukeA-2" value="&lt;b&gt;RDC&lt;/b&gt;&lt;br&gt;DELL N3048&lt;br&gt;&lt;font color=&quot;#0000ff&quot;&gt;10.0.0.10/24&lt;/font&gt;" style="text;strokeColor=none;align=center;fillColor=none;html=1;verticalAlign=middle;whiteSpace=wrap;rounded=1;fontSize=7;" parent="1" vertex="1">
          <mxGeometry x="349" y="540" width="114" height="30" as="geometry" />
        </mxCell>
        <mxCell id="sfJ1lC8nEEVltf4GukeA-3" value="&lt;font style=&quot;font-size: 8px; line-height: 50%;&quot;&gt;&lt;b&gt;Floor 01&lt;/b&gt;&lt;br style=&quot;&quot;&gt;Dlink DGS-1100&lt;br style=&quot;&quot;&gt;&lt;font color=&quot;#0000ff&quot;&gt;10.0.0.9/24&lt;/font&gt;&lt;/font&gt;" style="text;strokeColor=none;align=left;fillColor=none;html=1;verticalAlign=middle;whiteSpace=wrap;rounded=1;fontSize=10;" parent="1" vertex="1">
          <mxGeometry x="438" y="356" width="114" height="30" as="geometry" />
        </mxCell>
        <mxCell id="B-XAu3GCHbLe1usWO87O-1" value="" style="rounded=1;whiteSpace=wrap;html=1;strokeWidth=0;fillColor=#FFE6CC;strokeColor=none;shadow=1;opacity=50;" parent="1" vertex="1">
          <mxGeometry x="161" y="259" width="340" height="323" as="geometry" />
        </mxCell>
        <mxCell id="B-XAu3GCHbLe1usWO87O-36" value="&lt;font color=&quot;#666666&quot; style=&quot;border-color: var(--border-color); font-family: Helvetica;&quot;&gt;&lt;b style=&quot;border-color: var(--border-color);&quot;&gt;&lt;br style=&quot;border-color: var(--border-color);&quot;&gt;&lt;br style=&quot;border-color: var(--border-color);&quot;&gt;LAN Data [Vlan8]&lt;br style=&quot;border-color: var(--border-color);&quot;&gt;&lt;/b&gt;&lt;/font&gt;&lt;span style=&quot;color: rgb(0, 0, 0); font-family: Helvetica;&quot;&gt;192.168.200.0/23&lt;/span&gt;&lt;font color=&quot;#666666&quot; style=&quot;border-color: var(--border-color); font-family: Helvetica;&quot;&gt;&lt;b style=&quot;border-color: var(--border-color);&quot;&gt;&amp;nbsp;&lt;br style=&quot;border-color: var(--border-color);&quot;&gt;LAN Guest [Vlan11]&lt;br style=&quot;border-color: var(--border-color);&quot;&gt;&lt;/b&gt;&lt;/font&gt;&lt;span style=&quot;color: rgb(0, 0, 0); font-family: Helvetica;&quot;&gt;192.168.202.0/24&lt;/span&gt;&lt;br style=&quot;border-color: var(--border-color); font-family: Helvetica; color: rgb(102, 102, 102);&quot;&gt;&lt;font color=&quot;#666666&quot; style=&quot;border-color: var(--border-color); font-family: Helvetica;&quot;&gt;&lt;b style=&quot;border-color: var(--border-color);&quot;&gt;LAN Data [Vlan10]&amp;nbsp;&lt;br style=&quot;border-color: var(--border-color);&quot;&gt;&lt;/b&gt;192.168.210.0/23&lt;br style=&quot;border-color: var(--border-color);&quot;&gt;&lt;/font&gt;&lt;b style=&quot;border-color: var(--border-color); font-family: Helvetica; color: rgb(102, 102, 102);&quot;&gt;LAN CCTV [Vlan18]&amp;nbsp;&lt;br style=&quot;border-color: var(--border-color);&quot;&gt;&lt;/b&gt;&lt;font color=&quot;#666666&quot; style=&quot;border-color: var(--border-color); font-family: Helvetica;&quot;&gt;10.10.2.0/24&lt;br style=&quot;border-color: var(--border-color);&quot;&gt;&lt;/font&gt;&lt;b style=&quot;border-color: var(--border-color); font-family: Helvetica; color: rgb(102, 102, 102);&quot;&gt;LAN Mgmt [Vlan60]&amp;nbsp;&lt;br style=&quot;border-color: var(--border-color);&quot;&gt;&lt;/b&gt;&lt;font color=&quot;#666666&quot; style=&quot;border-color: var(--border-color); font-family: Helvetica;&quot;&gt;10.0.0.0/24&lt;/font&gt;" style="text;strokeColor=none;align=center;fillColor=none;html=1;verticalAlign=middle;whiteSpace=wrap;rounded=1;fontSize=11;fontFamily=Verdana;fontColor=#FF3399;textShadow=1;" parent="1" vertex="1">
          <mxGeometry x="106" y="337" width="262" height="30" as="geometry" />
        </mxCell>
        <mxCell id="sfJ1lC8nEEVltf4GukeA-5" value="" style="endArrow=blockThin;html=1;rounded=0;fontSize=12;startSize=8;endSize=8;curved=1;endFill=1;strokeColor=#00994D;" parent="1" edge="1">
          <mxGeometry width="50" height="50" relative="1" as="geometry">
            <mxPoint x="873.8900000000001" y="741.7599999999993" as="sourcePoint" />
            <mxPoint x="1067.89" y="741.7799999999997" as="targetPoint" />
          </mxGeometry>
        </mxCell>
        <mxCell id="sfJ1lC8nEEVltf4GukeA-6" value="" style="endArrow=none;html=1;rounded=0;fontSize=12;startSize=8;endSize=8;curved=1;endFill=0;startArrow=oval;startFill=1;dashed=1;dashPattern=1 2;strokeColor=#CC00CC;" parent="1" edge="1">
          <mxGeometry width="50" height="50" relative="1" as="geometry">
            <mxPoint x="952.8500000000001" y="741.7599999999993" as="sourcePoint" />
            <mxPoint x="990.8900000000001" y="760.7800000000002" as="targetPoint" />
          </mxGeometry>
        </mxCell>
        <mxCell id="sfJ1lC8nEEVltf4GukeA-7" value="" style="endArrow=blockThin;html=1;rounded=0;fontSize=12;startSize=8;endSize=8;curved=1;endFill=1;dashed=1;dashPattern=1 2;strokeColor=#CC00CC;" parent="1" edge="1">
          <mxGeometry width="50" height="50" relative="1" as="geometry">
            <mxPoint x="991.3999999999999" y="760.23" as="sourcePoint" />
            <mxPoint x="1067.89" y="760.7800000000002" as="targetPoint" />
          </mxGeometry>
        </mxCell>
        <mxCell id="sfJ1lC8nEEVltf4GukeA-8" value="" style="sketch=0;html=1;aspect=fixed;strokeColor=none;shadow=0;fillColor=#009900;verticalAlign=top;labelPosition=center;verticalLabelPosition=bottom;shape=mxgraph.gcp2.globe_world;fontSize=16;" parent="1" vertex="1">
          <mxGeometry x="1076.89" y="731.7799999999997" width="15.79" height="15" as="geometry" />
        </mxCell>
        <mxCell id="sfJ1lC8nEEVltf4GukeA-9" value="&lt;font color=&quot;#4d4d4d&quot;&gt;&lt;span style=&quot;font-size: 8px;&quot;&gt;&lt;b&gt;LAN&lt;/b&gt;&lt;/span&gt;&lt;/font&gt;" style="rounded=1;whiteSpace=wrap;html=1;fontSize=16;strokeWidth=0;fillColor=#D5E8D4;strokeColor=none;shadow=1;verticalAlign=middle;" parent="1" vertex="1">
          <mxGeometry x="775.28" y="729.8000000000002" width="94.08" height="22" as="geometry" />
        </mxCell>
        <mxCell id="sfJ1lC8nEEVltf4GukeA-10" value="" style="rounded=1;whiteSpace=wrap;html=1;strokeWidth=1;strokeColor=#004C99;fillColor=none;opacity=30;textOpacity=70;dashed=1;fontColor=#ffffff;" parent="1" vertex="1">
          <mxGeometry x="755" y="651.84" width="402" height="136.66" as="geometry" />
        </mxCell>
        <mxCell id="sfJ1lC8nEEVltf4GukeA-11" value="&lt;font style=&quot;font-size: 8px; font-weight: normal;&quot;&gt;The Internet Traffic defaulty transits via Palace.&lt;br&gt;Switch over CAMTEL FTTH&amp;nbsp; in case of the main&#39;s link failure.&amp;nbsp;&lt;/font&gt;" style="text;strokeColor=none;align=left;fillColor=none;html=1;verticalAlign=middle;whiteSpace=wrap;rounded=0;fontSize=10;fontStyle=1;fontColor=#666666;" parent="1" vertex="1">
          <mxGeometry x="777.49" y="685.3000000000004" width="359" height="30" as="geometry" />
        </mxCell>
        <mxCell id="sfJ1lC8nEEVltf4GukeA-12" value="&amp;gt; Policy Routing Route (PBR) automatically switching over&amp;nbsp; internet links&amp;nbsp;" style="text;strokeColor=none;align=center;fillColor=none;html=1;verticalAlign=middle;whiteSpace=wrap;rounded=0;fontSize=10;fontStyle=1;fontColor=#666666;" parent="1" vertex="1">
          <mxGeometry x="762.7300000000002" y="649.78" width="359" height="30" as="geometry" />
        </mxCell>
        <mxCell id="sfJ1lC8nEEVltf4GukeA-13" value="" style="sketch=0;html=1;aspect=fixed;strokeColor=none;shadow=0;fillColor=#CC00CC;verticalAlign=top;labelPosition=center;verticalLabelPosition=bottom;shape=mxgraph.gcp2.globe_world;fontSize=16;" parent="1" vertex="1">
          <mxGeometry x="1076.89" y="751.7999999999997" width="15.79" height="15" as="geometry" />
        </mxCell>
        <mxCell id="sfJ1lC8nEEVltf4GukeA-14" value="&lt;font&gt;PALACE&lt;/font&gt;" style="text;whiteSpace=wrap;html=1;fontSize=9;" parent="1" vertex="1">
          <mxGeometry x="1095.22" y="728" width="45" height="19" as="geometry" />
        </mxCell>
        <mxCell id="sfJ1lC8nEEVltf4GukeA-15" value="&lt;span&gt;BIR BASTOS&lt;/span&gt;" style="text;whiteSpace=wrap;html=1;fontSize=9;" parent="1" vertex="1">
          <mxGeometry x="1095.22" y="747.02" width="75.78" height="19" as="geometry" />
        </mxCell>
      </root>
    </mxGraphModel>
  </diagram>
  <diagram name="Wireless_Dist" id="_LuzIWm5xkK-2wSc7GHp">
    <mxGraphModel dx="1098" dy="572" grid="0" gridSize="10" guides="1" tooltips="1" connect="1" arrows="1" fold="1" page="1" pageScale="1" pageWidth="1169" pageHeight="827" math="0" shadow="0">
      <root>
        <mxCell id="IRQASCHWSqb73_lPE6-M-0" />
        <mxCell id="IRQASCHWSqb73_lPE6-M-1" parent="IRQASCHWSqb73_lPE6-M-0" />
        <mxCell id="IRQASCHWSqb73_lPE6-M-18" value="" style="rounded=1;whiteSpace=wrap;html=1;shadow=1;glass=1;strokeWidth=3;strokeColor=#666666;" vertex="1" parent="IRQASCHWSqb73_lPE6-M-1">
          <mxGeometry x="50" y="733" width="403" height="71" as="geometry" />
        </mxCell>
        <mxCell id="IRQASCHWSqb73_lPE6-M-19" value="" style="image;html=1;image=img/lib/clip_art/networking/Router_Icon_128x128.png;rounded=1;" vertex="1" parent="IRQASCHWSqb73_lPE6-M-1">
          <mxGeometry x="168" y="744.5" width="47" height="44" as="geometry" />
        </mxCell>
        <mxCell id="IRQASCHWSqb73_lPE6-M-20" value="&lt;span&gt;Router&lt;/span&gt;" style="text;strokeColor=none;align=center;fillColor=none;html=1;verticalAlign=middle;whiteSpace=wrap;rounded=1;fontSize=10;fontFamily=Verdana;fontColor=#4D4D4D;fontStyle=0;" vertex="1" parent="IRQASCHWSqb73_lPE6-M-1">
          <mxGeometry x="164" y="782" width="52" height="12" as="geometry" />
        </mxCell>
        <mxCell id="IRQASCHWSqb73_lPE6-M-21" value="" style="points=[[0.015,0.015,0],[0.985,0.015,0],[0.985,0.985,0],[0.015,0.985,0],[0.25,0,0],[0.5,0,0],[0.75,0,0],[1,0.25,0],[1,0.5,0],[1,0.75,0],[0.75,1,0],[0.5,1,0],[0.25,1,0],[0,0.75,0],[0,0.5,0],[0,0.25,0]];verticalLabelPosition=bottom;html=1;verticalAlign=top;aspect=fixed;align=center;pointerEvents=1;shape=mxgraph.cisco19.rect;prIcon=workgroup_switch;fillColor=#FAFAFA;strokeColor=#005073;rounded=1;" vertex="1" parent="IRQASCHWSqb73_lPE6-M-1">
          <mxGeometry x="87" y="746" width="33" height="33" as="geometry" />
        </mxCell>
        <mxCell id="IRQASCHWSqb73_lPE6-M-22" value="&lt;span&gt;Switch&lt;/span&gt;" style="text;strokeColor=none;align=center;fillColor=none;html=1;verticalAlign=middle;whiteSpace=wrap;rounded=1;fontSize=10;fontFamily=Verdana;fontColor=#4D4D4D;fontStyle=0;" vertex="1" parent="IRQASCHWSqb73_lPE6-M-1">
          <mxGeometry x="74" y="782" width="61" height="12" as="geometry" />
        </mxCell>
        <mxCell id="IRQASCHWSqb73_lPE6-M-32" value="&lt;font style=&quot;font-size: 17px;&quot; face=&quot;Tahoma&quot;&gt;&lt;b style=&quot;background-color: light-dark(#ffffff, var(--ge-dark-color, #121212));&quot;&gt;DPC OFFICE (Yaounde)&lt;/b&gt;&lt;/font&gt;&lt;div&gt;&lt;br&gt;&lt;/div&gt;&lt;div&gt;&lt;font style=&quot;font-size: 15px; color: rgb(153, 153, 0);&quot;&gt;Wireless Core Network&lt;/font&gt;&lt;/div&gt;" style="rounded=1;whiteSpace=wrap;html=1;shadow=1;glass=1;strokeWidth=3;strokeColor=#666666;" vertex="1" parent="IRQASCHWSqb73_lPE6-M-1">
          <mxGeometry x="404" y="16" width="317.5" height="97" as="geometry" />
        </mxCell>
        <mxCell id="IRQASCHWSqb73_lPE6-M-42" style="edgeStyle=none;rounded=1;orthogonalLoop=1;jettySize=auto;html=1;entryX=1;entryY=0.5;entryDx=0;entryDy=0;entryPerimeter=0;endArrow=none;endFill=0;strokeColor=#000000;strokeWidth=3;opacity=70;" edge="1" parent="IRQASCHWSqb73_lPE6-M-1">
          <mxGeometry relative="1" as="geometry">
            <mxPoint x="426" y="772" as="sourcePoint" />
            <mxPoint x="266" y="772" as="targetPoint" />
          </mxGeometry>
        </mxCell>
        <mxCell id="IRQASCHWSqb73_lPE6-M-43" value="&lt;font style=&quot;font-size: 7px; font-weight: normal;&quot;&gt;&amp;nbsp;Copper link (Trunk 802.1Q)&lt;/font&gt;" style="edgeLabel;html=1;align=center;verticalAlign=middle;resizable=0;points=[];fontSize=8;fontStyle=1" vertex="1" connectable="0" parent="IRQASCHWSqb73_lPE6-M-42">
          <mxGeometry x="0.165" relative="1" as="geometry">
            <mxPoint x="13" y="-2" as="offset" />
          </mxGeometry>
        </mxCell>
        <mxCell id="9D0R4g1GBQlCRiH9REV9-0" value="" style="ellipse;whiteSpace=wrap;html=1;aspect=fixed;rounded=1;fillColor=#E6E6E6;strokeColor=none;shadow=0;fillStyle=auto;gradientColor=none;" vertex="1" parent="IRQASCHWSqb73_lPE6-M-1">
          <mxGeometry x="447" y="317" width="206" height="206" as="geometry" />
        </mxCell>
        <mxCell id="9D0R4g1GBQlCRiH9REV9-1" style="edgeStyle=none;rounded=1;orthogonalLoop=1;jettySize=auto;html=1;exitX=0.5;exitY=1;exitDx=0;exitDy=0;exitPerimeter=0;entryX=0.612;entryY=0.522;entryDx=0;entryDy=0;entryPerimeter=0;endArrow=none;endFill=0;" edge="1" parent="IRQASCHWSqb73_lPE6-M-1" source="9D0R4g1GBQlCRiH9REV9-11" target="9D0R4g1GBQlCRiH9REV9-19">
          <mxGeometry relative="1" as="geometry">
            <mxPoint x="645" y="271" as="sourcePoint" />
            <mxPoint x="663" y="354" as="targetPoint" />
          </mxGeometry>
        </mxCell>
        <mxCell id="PnxloX4ZUquC8OgbOe3k-3" value="&lt;font style=&quot;font-size: 9px; color: rgb(103, 171, 159);&quot;&gt;port21&lt;/font&gt;" style="edgeLabel;html=1;align=center;verticalAlign=middle;resizable=0;points=[];" vertex="1" connectable="0" parent="9D0R4g1GBQlCRiH9REV9-1">
          <mxGeometry x="-0.0439" y="1" relative="1" as="geometry">
            <mxPoint x="-1" y="5" as="offset" />
          </mxGeometry>
        </mxCell>
        <mxCell id="9D0R4g1GBQlCRiH9REV9-2" style="edgeStyle=none;rounded=1;orthogonalLoop=1;jettySize=auto;html=1;exitX=0.5;exitY=1;exitDx=0;exitDy=0;exitPerimeter=0;entryX=0.366;entryY=0.398;entryDx=0;entryDy=0;entryPerimeter=0;endArrow=none;endFill=0;" edge="1" parent="IRQASCHWSqb73_lPE6-M-1" source="9D0R4g1GBQlCRiH9REV9-12" target="9D0R4g1GBQlCRiH9REV9-19">
          <mxGeometry relative="1" as="geometry">
            <mxPoint x="615" y="272" as="sourcePoint" />
            <mxPoint x="633" y="355" as="targetPoint" />
          </mxGeometry>
        </mxCell>
        <mxCell id="PnxloX4ZUquC8OgbOe3k-4" value="&lt;font style=&quot;font-size: 9px; color: rgb(103, 171, 159);&quot;&gt;port22&lt;/font&gt;" style="edgeLabel;html=1;align=center;verticalAlign=middle;resizable=0;points=[];" vertex="1" connectable="0" parent="9D0R4g1GBQlCRiH9REV9-2">
          <mxGeometry x="-0.0227" y="1" relative="1" as="geometry">
            <mxPoint x="1" y="8" as="offset" />
          </mxGeometry>
        </mxCell>
        <mxCell id="9D0R4g1GBQlCRiH9REV9-3" style="edgeStyle=none;rounded=1;orthogonalLoop=1;jettySize=auto;html=1;exitX=0;exitY=0.5;exitDx=0;exitDy=0;exitPerimeter=0;entryX=0.5;entryY=0.34;entryDx=0;entryDy=0;entryPerimeter=0;endArrow=none;endFill=0;" edge="1" parent="IRQASCHWSqb73_lPE6-M-1" target="9D0R4g1GBQlCRiH9REV9-9">
          <mxGeometry relative="1" as="geometry">
            <mxPoint x="627" y="476" as="sourcePoint" />
            <mxPoint x="645" y="559" as="targetPoint" />
          </mxGeometry>
        </mxCell>
        <mxCell id="PnxloX4ZUquC8OgbOe3k-5" value="port39" style="edgeLabel;html=1;align=center;verticalAlign=middle;resizable=0;points=[];fontSize=9;fontColor=#67AB9F;" vertex="1" connectable="0" parent="9D0R4g1GBQlCRiH9REV9-3">
          <mxGeometry x="-0.3918" relative="1" as="geometry">
            <mxPoint as="offset" />
          </mxGeometry>
        </mxCell>
        <mxCell id="9D0R4g1GBQlCRiH9REV9-4" style="edgeStyle=none;rounded=1;orthogonalLoop=1;jettySize=auto;html=1;exitX=0;exitY=0.5;exitDx=0;exitDy=0;exitPerimeter=0;entryX=0.5;entryY=0.34;entryDx=0;entryDy=0;entryPerimeter=0;endArrow=none;endFill=0;" edge="1" parent="IRQASCHWSqb73_lPE6-M-1" target="9D0R4g1GBQlCRiH9REV9-10">
          <mxGeometry relative="1" as="geometry">
            <mxPoint x="440" y="474" as="sourcePoint" />
            <mxPoint x="457.82899999999995" y="556.6590000000001" as="targetPoint" />
          </mxGeometry>
        </mxCell>
        <mxCell id="PnxloX4ZUquC8OgbOe3k-6" value="port14" style="edgeLabel;html=1;align=center;verticalAlign=middle;resizable=0;points=[];fontSize=9;fontColor=#67AB9F;" vertex="1" connectable="0" parent="9D0R4g1GBQlCRiH9REV9-4">
          <mxGeometry x="-0.3085" y="1" relative="1" as="geometry">
            <mxPoint as="offset" />
          </mxGeometry>
        </mxCell>
        <mxCell id="9D0R4g1GBQlCRiH9REV9-5" style="edgeStyle=none;rounded=1;orthogonalLoop=1;jettySize=auto;html=1;exitX=0.5;exitY=1;exitDx=0;exitDy=0;exitPerimeter=0;entryX=0.5;entryY=0;entryDx=0;entryDy=0;entryPerimeter=0;endArrow=none;endFill=0;strokeWidth=2;" edge="1" parent="IRQASCHWSqb73_lPE6-M-1" source="9D0R4g1GBQlCRiH9REV9-19" target="9D0R4g1GBQlCRiH9REV9-7">
          <mxGeometry relative="1" as="geometry" />
        </mxCell>
        <mxCell id="9D0R4g1GBQlCRiH9REV9-6" style="edgeStyle=none;rounded=1;orthogonalLoop=1;jettySize=auto;html=1;exitX=1;exitY=0.5;exitDx=0;exitDy=0;exitPerimeter=0;entryX=1;entryY=0.5;entryDx=0;entryDy=0;entryPerimeter=0;endArrow=none;endFill=0;strokeWidth=3;" edge="1" parent="IRQASCHWSqb73_lPE6-M-1" source="9D0R4g1GBQlCRiH9REV9-8" target="9D0R4g1GBQlCRiH9REV9-7">
          <mxGeometry relative="1" as="geometry">
            <mxPoint x="651" y="322" as="sourcePoint" />
            <mxPoint x="651" y="462" as="targetPoint" />
          </mxGeometry>
        </mxCell>
        <mxCell id="9D0R4g1GBQlCRiH9REV9-7" value="" style="points=[[0.015,0.015,0],[0.985,0.015,0],[0.985,0.985,0],[0.015,0.985,0],[0.25,0,0],[0.5,0,0],[0.75,0,0],[1,0.25,0],[1,0.5,0],[1,0.75,0],[0.75,1,0],[0.5,1,0],[0.25,1,0],[0,0.75,0],[0,0.5,0],[0,0.25,0]];verticalLabelPosition=bottom;html=1;verticalAlign=top;aspect=fixed;align=center;pointerEvents=1;shape=mxgraph.cisco19.rect;prIcon=workgroup_switch;fillColor=#FAFAFA;strokeColor=#005073;rounded=1;" vertex="1" parent="IRQASCHWSqb73_lPE6-M-1">
          <mxGeometry x="616" y="452" width="50" height="50" as="geometry" />
        </mxCell>
        <mxCell id="9D0R4g1GBQlCRiH9REV9-8" value="" style="points=[[0.015,0.015,0],[0.985,0.015,0],[0.985,0.985,0],[0.015,0.985,0],[0.25,0,0],[0.5,0,0],[0.75,0,0],[1,0.25,0],[1,0.5,0],[1,0.75,0],[0.75,1,0],[0.5,1,0],[0.25,1,0],[0,0.75,0],[0,0.5,0],[0,0.25,0]];verticalLabelPosition=bottom;html=1;verticalAlign=top;aspect=fixed;align=center;pointerEvents=1;shape=mxgraph.cisco19.rect;prIcon=workgroup_switch;fillColor=#FAFAFA;strokeColor=#005073;rounded=1;" vertex="1" parent="IRQASCHWSqb73_lPE6-M-1">
          <mxGeometry x="430" y="452" width="50" height="50" as="geometry" />
        </mxCell>
        <mxCell id="9D0R4g1GBQlCRiH9REV9-9" value="" style="points=[[0.03,0.36,0],[0.18,0,0],[0.5,0.34,0],[0.82,0,0],[0.97,0.36,0],[1,0.67,0],[0.975,0.975,0],[0.5,1,0],[0.025,0.975,0],[0,0.67,0]];verticalLabelPosition=bottom;html=1;verticalAlign=top;aspect=fixed;align=center;pointerEvents=1;shape=mxgraph.cisco19.wireless_access_point;fillColor=#FF0000;strokeColor=none;fontColor=#666666;rounded=1;" vertex="1" parent="IRQASCHWSqb73_lPE6-M-1">
          <mxGeometry x="622" y="575" width="41" height="41" as="geometry" />
        </mxCell>
        <mxCell id="9D0R4g1GBQlCRiH9REV9-10" value="" style="points=[[0.03,0.36,0],[0.18,0,0],[0.5,0.34,0],[0.82,0,0],[0.97,0.36,0],[1,0.67,0],[0.975,0.975,0],[0.5,1,0],[0.025,0.975,0],[0,0.67,0]];verticalLabelPosition=bottom;html=1;verticalAlign=top;aspect=fixed;align=center;pointerEvents=1;shape=mxgraph.cisco19.wireless_access_point;fillColor=#0000CC;strokeColor=none;fontColor=#666666;rounded=1;" vertex="1" parent="IRQASCHWSqb73_lPE6-M-1">
          <mxGeometry x="434.5" y="572" width="41" height="41" as="geometry" />
        </mxCell>
        <mxCell id="9D0R4g1GBQlCRiH9REV9-11" value="" style="points=[[0.03,0.36,0],[0.18,0,0],[0.5,0.34,0],[0.82,0,0],[0.97,0.36,0],[1,0.67,0],[0.975,0.975,0],[0.5,1,0],[0.025,0.975,0],[0,0.67,0]];verticalLabelPosition=bottom;html=1;verticalAlign=top;aspect=fixed;align=center;pointerEvents=1;shape=mxgraph.cisco19.wireless_access_point;fillColor=#0000CC;strokeColor=none;fontColor=#666666;rounded=1;" vertex="1" parent="IRQASCHWSqb73_lPE6-M-1">
          <mxGeometry x="654" y="215" width="41" height="41" as="geometry" />
        </mxCell>
        <mxCell id="9D0R4g1GBQlCRiH9REV9-12" value="" style="points=[[0.03,0.36,0],[0.18,0,0],[0.5,0.34,0],[0.82,0,0],[0.97,0.36,0],[1,0.67,0],[0.975,0.975,0],[0.5,1,0],[0.025,0.975,0],[0,0.67,0]];verticalLabelPosition=bottom;html=1;verticalAlign=top;aspect=fixed;align=center;pointerEvents=1;shape=mxgraph.cisco19.wireless_access_point;fillColor=#0000CC;strokeColor=none;fontColor=#666666;rounded=1;" vertex="1" parent="IRQASCHWSqb73_lPE6-M-1">
          <mxGeometry x="593" y="215" width="41" height="41" as="geometry" />
        </mxCell>
        <mxCell id="9D0R4g1GBQlCRiH9REV9-13" value="&lt;b&gt;Fl0OpenSpace&lt;/b&gt;&lt;br style=&quot;font-size: 10px;&quot;&gt;&lt;font color=&quot;#0000ff&quot; style=&quot;font-size: 10px;&quot;&gt;192.168.200.39&lt;/font&gt;" style="text;strokeColor=none;align=left;fillColor=none;html=1;verticalAlign=middle;whiteSpace=wrap;rounded=1;fontSize=10;" vertex="1" parent="IRQASCHWSqb73_lPE6-M-1">
          <mxGeometry x="605" y="618" width="114" height="30" as="geometry" />
        </mxCell>
        <mxCell id="9D0R4g1GBQlCRiH9REV9-14" value="&lt;b&gt;Fl1Corridor&lt;br&gt;&lt;/b&gt;80:2A:A8:86:DB:51&lt;br style=&quot;font-size: 10px;&quot;&gt;&lt;font color=&quot;#0000ff&quot; style=&quot;font-size: 10px;&quot;&gt;192.168.200.40&lt;/font&gt;" style="text;strokeColor=none;align=right;fillColor=none;html=1;verticalAlign=middle;whiteSpace=wrap;rounded=1;fontSize=10;" vertex="1" parent="IRQASCHWSqb73_lPE6-M-1">
          <mxGeometry x="471" y="226" width="114" height="30" as="geometry" />
        </mxCell>
        <mxCell id="9D0R4g1GBQlCRiH9REV9-15" value="&lt;b&gt;Fl1IoanOffice&lt;br&gt;&lt;/b&gt;F0:9F:C2:FC:35:64&lt;br style=&quot;font-size: 10px;&quot;&gt;&lt;font color=&quot;#0000ff&quot; style=&quot;font-size: 10px;&quot;&gt;192.168.200.236&lt;/font&gt;" style="text;strokeColor=none;align=left;fillColor=none;html=1;verticalAlign=middle;whiteSpace=wrap;rounded=1;fontSize=10;" vertex="1" parent="IRQASCHWSqb73_lPE6-M-1">
          <mxGeometry x="704" y="229" width="114" height="30" as="geometry" />
        </mxCell>
        <mxCell id="9D0R4g1GBQlCRiH9REV9-16" value="&lt;b&gt;DriverIT&lt;br&gt;&lt;/b&gt;68:D7:9A:70:4A:D2&lt;br style=&quot;font-size: 10px;&quot;&gt;&lt;font color=&quot;#0000ff&quot; style=&quot;font-size: 10px;&quot;&gt;192.168.200.237&lt;/font&gt;" style="text;strokeColor=none;align=center;fillColor=none;html=1;verticalAlign=middle;whiteSpace=wrap;rounded=1;fontSize=10;" vertex="1" parent="IRQASCHWSqb73_lPE6-M-1">
          <mxGeometry x="272" y="509" width="114" height="30" as="geometry" />
        </mxCell>
        <mxCell id="9D0R4g1GBQlCRiH9REV9-17" style="edgeStyle=none;rounded=1;orthogonalLoop=1;jettySize=auto;html=1;exitX=0;exitY=0.5;exitDx=0;exitDy=0;exitPerimeter=0;endArrow=none;endFill=0;" edge="1" parent="IRQASCHWSqb73_lPE6-M-1">
          <mxGeometry relative="1" as="geometry">
            <mxPoint x="633.5" y="346" as="sourcePoint" />
            <mxPoint x="739" y="346" as="targetPoint" />
          </mxGeometry>
        </mxCell>
        <mxCell id="a3i9KzHp76wYK_3ZeFar-1" value="port9" style="edgeLabel;html=1;align=center;verticalAlign=middle;resizable=0;points=[];fontColor=#67AB9F;fontSize=9;fontStyle=2" vertex="1" connectable="0" parent="9D0R4g1GBQlCRiH9REV9-17">
          <mxGeometry x="-0.223" y="-1" relative="1" as="geometry">
            <mxPoint x="4" y="-2" as="offset" />
          </mxGeometry>
        </mxCell>
        <mxCell id="9D0R4g1GBQlCRiH9REV9-19" value="" style="points=[[0.015,0.015,0],[0.985,0.015,0],[0.985,0.985,0],[0.015,0.985,0],[0.25,0,0],[0.5,0,0],[0.75,0,0],[1,0.25,0],[1,0.5,0],[1,0.75,0],[0.75,1,0],[0.5,1,0],[0.25,1,0],[0,0.75,0],[0,0.5,0],[0,0.25,0]];verticalLabelPosition=bottom;html=1;verticalAlign=top;aspect=fixed;align=center;pointerEvents=1;shape=mxgraph.cisco19.rect;prIcon=workgroup_switch;fillColor=#FAFAFA;strokeColor=#005073;rounded=1;" vertex="1" parent="IRQASCHWSqb73_lPE6-M-1">
          <mxGeometry x="616" y="315" width="50" height="50" as="geometry" />
        </mxCell>
        <mxCell id="9D0R4g1GBQlCRiH9REV9-24" value="" style="points=[[0.03,0.36,0],[0.18,0,0],[0.5,0.34,0],[0.82,0,0],[0.97,0.36,0],[1,0.67,0],[0.975,0.975,0],[0.5,1,0],[0.025,0.975,0],[0,0.67,0]];verticalLabelPosition=bottom;html=1;verticalAlign=top;aspect=fixed;align=center;pointerEvents=1;shape=mxgraph.cisco19.wireless_access_point;fillColor=#000099;strokeColor=none;fontColor=#666666;fillStyle=solid;rounded=1;" vertex="1" parent="IRQASCHWSqb73_lPE6-M-1">
          <mxGeometry x="308.5" y="461" width="41" height="41" as="geometry" />
        </mxCell>
        <mxCell id="9D0R4g1GBQlCRiH9REV9-25" value="&lt;b&gt;RoomIT&lt;br&gt;&lt;/b&gt;F0:9F:C2:FC:33:F9&lt;br style=&quot;font-size: 10px;&quot;&gt;&lt;font color=&quot;#0000ff&quot; style=&quot;font-size: 10px;&quot;&gt;192.168.200.239&lt;/font&gt;" style="text;strokeColor=none;align=center;fillColor=none;html=1;verticalAlign=middle;whiteSpace=wrap;rounded=1;fontSize=10;" vertex="1" parent="IRQASCHWSqb73_lPE6-M-1">
          <mxGeometry x="402" y="621" width="114" height="30" as="geometry" />
        </mxCell>
        <mxCell id="9D0R4g1GBQlCRiH9REV9-27" value="" style="edgeStyle=none;rounded=1;orthogonalLoop=1;jettySize=auto;html=1;exitX=1;exitY=0.67;exitDx=0;exitDy=0;exitPerimeter=0;entryX=1;entryY=0.5;entryDx=0;entryDy=0;entryPerimeter=0;endArrow=none;endFill=0;" edge="1" parent="IRQASCHWSqb73_lPE6-M-1">
          <mxGeometry relative="1" as="geometry">
            <mxPoint x="349.5" y="487.4699999999998" as="sourcePoint" />
            <mxPoint x="430" y="476.5" as="targetPoint" />
          </mxGeometry>
        </mxCell>
        <mxCell id="PnxloX4ZUquC8OgbOe3k-7" value="port19" style="edgeLabel;html=1;align=center;verticalAlign=middle;resizable=0;points=[];fontSize=9;fontColor=#67AB9F;" vertex="1" connectable="0" parent="9D0R4g1GBQlCRiH9REV9-27">
          <mxGeometry x="0.4946" relative="1" as="geometry">
            <mxPoint as="offset" />
          </mxGeometry>
        </mxCell>
        <mxCell id="9D0R4g1GBQlCRiH9REV9-29" value="&lt;b&gt;ROOM IT&lt;/b&gt;" style="text;strokeColor=none;align=center;fillColor=none;html=1;verticalAlign=middle;whiteSpace=wrap;rounded=1;fontSize=10;fontFamily=Verdana;fontColor=#FF3399;" vertex="1" parent="IRQASCHWSqb73_lPE6-M-1">
          <mxGeometry x="397.75" y="424" width="114" height="30" as="geometry" />
        </mxCell>
        <mxCell id="9D0R4g1GBQlCRiH9REV9-30" value="&lt;b&gt;RDC&lt;/b&gt;" style="text;strokeColor=none;align=center;fillColor=none;html=1;verticalAlign=middle;whiteSpace=wrap;rounded=1;fontSize=10;fontFamily=Verdana;fontColor=#FF3399;" vertex="1" parent="IRQASCHWSqb73_lPE6-M-1">
          <mxGeometry x="556.5" y="429" width="114" height="30" as="geometry" />
        </mxCell>
        <mxCell id="9D0R4g1GBQlCRiH9REV9-31" value="&lt;b&gt;FLOOR 01&lt;/b&gt;" style="text;strokeColor=none;align=center;fillColor=none;html=1;verticalAlign=middle;whiteSpace=wrap;rounded=1;fontSize=10;fontFamily=Verdana;fontColor=#FF3399;" vertex="1" parent="IRQASCHWSqb73_lPE6-M-1">
          <mxGeometry x="618" y="363" width="114" height="30" as="geometry" />
        </mxCell>
        <mxCell id="a3i9KzHp76wYK_3ZeFar-6" value="" style="edgeStyle=none;rounded=1;orthogonalLoop=1;jettySize=auto;html=1;exitX=0;exitY=0.5;exitDx=0;exitDy=0;exitPerimeter=0;endArrow=none;endFill=0;entryX=1;entryY=0.67;entryDx=0;entryDy=0;entryPerimeter=0;" edge="1" parent="IRQASCHWSqb73_lPE6-M-1" source="9D0R4g1GBQlCRiH9REV9-19" target="a3i9KzHp76wYK_3ZeFar-5">
          <mxGeometry relative="1" as="geometry">
            <mxPoint x="616" y="340" as="sourcePoint" />
            <mxPoint x="379" y="338" as="targetPoint" />
          </mxGeometry>
        </mxCell>
        <mxCell id="PnxloX4ZUquC8OgbOe3k-0" value="&lt;font style=&quot;color: rgb(103, 171, 159);&quot;&gt;&lt;i&gt;port12&lt;/i&gt;&lt;/font&gt;" style="edgeLabel;html=1;align=center;verticalAlign=middle;resizable=0;points=[];labelBackgroundColor=none;fontSize=9;" vertex="1" connectable="0" parent="a3i9KzHp76wYK_3ZeFar-6">
          <mxGeometry x="-0.5596" y="-1" relative="1" as="geometry">
            <mxPoint x="4" y="5" as="offset" />
          </mxGeometry>
        </mxCell>
        <mxCell id="PnxloX4ZUquC8OgbOe3k-1" value="" style="group" vertex="1" connectable="0" parent="IRQASCHWSqb73_lPE6-M-1">
          <mxGeometry x="707.5" y="317" width="114" height="77" as="geometry" />
        </mxCell>
        <mxCell id="9D0R4g1GBQlCRiH9REV9-18" value="" style="points=[[0.03,0.36,0],[0.18,0,0],[0.5,0.34,0],[0.82,0,0],[0.97,0.36,0],[1,0.67,0],[0.975,0.975,0],[0.5,1,0],[0.025,0.975,0],[0,0.67,0]];verticalLabelPosition=bottom;html=1;verticalAlign=top;aspect=fixed;align=center;pointerEvents=1;shape=mxgraph.cisco19.wireless_access_point;fillColor=#0000FF;strokeColor=none;fontColor=#666666;rounded=1;" vertex="1" parent="PnxloX4ZUquC8OgbOe3k-1">
          <mxGeometry x="31.5" width="41" height="41" as="geometry" />
        </mxCell>
        <mxCell id="a3i9KzHp76wYK_3ZeFar-0" value="&lt;b&gt;Balcony Assaf Fl1&lt;br&gt;&lt;/b&gt;AC-8B-A9-99-A8-0D&lt;br style=&quot;font-size: 10px;&quot;&gt;&lt;font style=&quot;font-size: 10px;&quot; color=&quot;#0000ff&quot;&gt;192.168.200.97&lt;/font&gt;" style="text;strokeColor=none;align=center;fillColor=none;html=1;verticalAlign=middle;whiteSpace=wrap;rounded=1;fontSize=10;" vertex="1" parent="PnxloX4ZUquC8OgbOe3k-1">
          <mxGeometry y="47" width="114" height="30" as="geometry" />
        </mxCell>
        <mxCell id="PnxloX4ZUquC8OgbOe3k-2" value="" style="group" vertex="1" connectable="0" parent="IRQASCHWSqb73_lPE6-M-1">
          <mxGeometry x="458" y="314" width="114" height="78" as="geometry" />
        </mxCell>
        <mxCell id="a3i9KzHp76wYK_3ZeFar-5" value="" style="points=[[0.03,0.36,0],[0.18,0,0],[0.5,0.34,0],[0.82,0,0],[0.97,0.36,0],[1,0.67,0],[0.975,0.975,0],[0.5,1,0],[0.025,0.975,0],[0,0.67,0]];verticalLabelPosition=bottom;html=1;verticalAlign=top;aspect=fixed;align=center;pointerEvents=1;shape=mxgraph.cisco19.wireless_access_point;fillColor=#0000FF;strokeColor=none;fontColor=#666666;rounded=1;" vertex="1" parent="PnxloX4ZUquC8OgbOe3k-2">
          <mxGeometry x="32" width="41" height="41" as="geometry" />
        </mxCell>
        <mxCell id="a3i9KzHp76wYK_3ZeFar-8" value="&lt;b&gt;AP Tsafir Office&lt;br&gt;&lt;/b&gt;&lt;font&gt;AC:8B:A9:99:A1:A4&lt;br&gt;&lt;font style=&quot;color: rgb(0, 0, 255);&quot;&gt;192.168.200.34&lt;/font&gt;&lt;/font&gt;" style="text;strokeColor=none;align=center;fillColor=none;html=1;verticalAlign=middle;whiteSpace=wrap;rounded=1;fontSize=10;" vertex="1" parent="PnxloX4ZUquC8OgbOe3k-2">
          <mxGeometry y="48" width="114" height="30" as="geometry" />
        </mxCell>
        <mxCell id="PnxloX4ZUquC8OgbOe3k-8" value="" style="sketch=0;aspect=fixed;pointerEvents=1;shadow=0;dashed=0;html=1;strokeColor=none;labelPosition=center;verticalLabelPosition=bottom;verticalAlign=top;align=center;fillColor=#CCCC00;shape=mxgraph.mscae.enterprise.wireless_connection;rotation=0;" vertex="1" parent="IRQASCHWSqb73_lPE6-M-1">
          <mxGeometry x="520.75" y="749" width="42" height="50" as="geometry" />
        </mxCell>
        <mxCell id="PnxloX4ZUquC8OgbOe3k-9" value="bigT" style="text;whiteSpace=wrap;html=1;fontFamily=Verdana;fontColor=#0000FF;" vertex="1" parent="IRQASCHWSqb73_lPE6-M-1">
          <mxGeometry x="554.75" y="737" width="56" height="36" as="geometry" />
        </mxCell>
        <mxCell id="PnxloX4ZUquC8OgbOe3k-10" value="&#xa;&lt;b style=&quot;border-color: var(--border-color); font-size: 12px; font-style: normal; font-variant-ligatures: normal; font-variant-caps: normal; letter-spacing: normal; orphans: 2; text-align: left; text-indent: 0px; text-transform: none; widows: 2; word-spacing: 0px; -webkit-text-stroke-width: 0px; background-color: rgb(251, 251, 251); text-decoration-thickness: initial; text-decoration-style: initial; text-decoration-color: initial;&quot;&gt;SSID&lt;/b&gt;&#xa;&#xa;" style="text;whiteSpace=wrap;html=1;fontFamily=Verdana;fontColor=#000000;" vertex="1" parent="IRQASCHWSqb73_lPE6-M-1">
          <mxGeometry x="482.75" y="707" width="56" height="36" as="geometry" />
        </mxCell>
        <mxCell id="PnxloX4ZUquC8OgbOe3k-11" value="The Office" style="text;whiteSpace=wrap;html=1;fontFamily=Verdana;fontColor=#0000FF;" vertex="1" parent="IRQASCHWSqb73_lPE6-M-1">
          <mxGeometry x="564.75" y="761" width="78" height="36" as="geometry" />
        </mxCell>
        <mxCell id="PnxloX4ZUquC8OgbOe3k-12" value="Guest" style="text;whiteSpace=wrap;html=1;fontFamily=Verdana;fontColor=#0000FF;" vertex="1" parent="IRQASCHWSqb73_lPE6-M-1">
          <mxGeometry x="552.75" y="785" width="78" height="36" as="geometry" />
        </mxCell>
      </root>
    </mxGraphModel>
  </diagram>
  <diagram name="Copie de Wireless_Dist" id="s2i3RkagyuLsBUMvGEf-">
    <mxGraphModel dx="1298" dy="675" grid="0" gridSize="10" guides="1" tooltips="1" connect="1" arrows="1" fold="1" page="1" pageScale="1" pageWidth="1169" pageHeight="827" math="0" shadow="0">
      <root>
        <mxCell id="h02Y4UNwVWyTR7LeDXFe-0" />
        <mxCell id="h02Y4UNwVWyTR7LeDXFe-1" parent="h02Y4UNwVWyTR7LeDXFe-0" />
        <mxCell id="9cGoJQG_ge7uvgVQGtIt-1" value="" style="rounded=1;whiteSpace=wrap;html=1;fillColor=#f5f5f5;fontColor=#333333;strokeColor=none;" vertex="1" parent="h02Y4UNwVWyTR7LeDXFe-1">
          <mxGeometry x="98" y="220.5" width="442" height="36" as="geometry" />
        </mxCell>
        <mxCell id="h02Y4UNwVWyTR7LeDXFe-2" value="" style="rounded=1;whiteSpace=wrap;html=1;shadow=1;glass=1;strokeWidth=3;strokeColor=#666666;" vertex="1" parent="h02Y4UNwVWyTR7LeDXFe-1">
          <mxGeometry x="50" y="733" width="403" height="71" as="geometry" />
        </mxCell>
        <mxCell id="h02Y4UNwVWyTR7LeDXFe-3" value="" style="image;html=1;image=img/lib/clip_art/networking/Router_Icon_128x128.png;rounded=1;" vertex="1" parent="h02Y4UNwVWyTR7LeDXFe-1">
          <mxGeometry x="168" y="744.5" width="47" height="44" as="geometry" />
        </mxCell>
        <mxCell id="h02Y4UNwVWyTR7LeDXFe-4" value="&lt;span&gt;Router&lt;/span&gt;" style="text;strokeColor=none;align=center;fillColor=none;html=1;verticalAlign=middle;whiteSpace=wrap;rounded=1;fontSize=10;fontFamily=Verdana;fontColor=#4D4D4D;fontStyle=0;" vertex="1" parent="h02Y4UNwVWyTR7LeDXFe-1">
          <mxGeometry x="164" y="782" width="52" height="12" as="geometry" />
        </mxCell>
        <mxCell id="h02Y4UNwVWyTR7LeDXFe-5" value="" style="points=[[0.015,0.015,0],[0.985,0.015,0],[0.985,0.985,0],[0.015,0.985,0],[0.25,0,0],[0.5,0,0],[0.75,0,0],[1,0.25,0],[1,0.5,0],[1,0.75,0],[0.75,1,0],[0.5,1,0],[0.25,1,0],[0,0.75,0],[0,0.5,0],[0,0.25,0]];verticalLabelPosition=bottom;html=1;verticalAlign=top;aspect=fixed;align=center;pointerEvents=1;shape=mxgraph.cisco19.rect;prIcon=workgroup_switch;fillColor=#FAFAFA;strokeColor=#005073;rounded=1;" vertex="1" parent="h02Y4UNwVWyTR7LeDXFe-1">
          <mxGeometry x="87" y="746" width="33" height="33" as="geometry" />
        </mxCell>
        <mxCell id="h02Y4UNwVWyTR7LeDXFe-6" value="&lt;span&gt;Switch&lt;/span&gt;" style="text;strokeColor=none;align=center;fillColor=none;html=1;verticalAlign=middle;whiteSpace=wrap;rounded=1;fontSize=10;fontFamily=Verdana;fontColor=#4D4D4D;fontStyle=0;" vertex="1" parent="h02Y4UNwVWyTR7LeDXFe-1">
          <mxGeometry x="74" y="782" width="61" height="12" as="geometry" />
        </mxCell>
        <mxCell id="h02Y4UNwVWyTR7LeDXFe-7" value="&lt;font style=&quot;font-size: 17px;&quot; face=&quot;Tahoma&quot;&gt;&lt;b style=&quot;background-color: light-dark(#ffffff, var(--ge-dark-color, #121212));&quot;&gt;DPC OFFICE (Yaounde)&lt;/b&gt;&lt;/font&gt;&lt;div&gt;&lt;br&gt;&lt;/div&gt;&lt;div&gt;&lt;font style=&quot;font-size: 15px; color: rgb(153, 153, 0);&quot;&gt;CCTV Distribution&lt;/font&gt;&lt;/div&gt;" style="rounded=1;whiteSpace=wrap;html=1;shadow=1;glass=1;strokeWidth=3;strokeColor=#666666;" vertex="1" parent="h02Y4UNwVWyTR7LeDXFe-1">
          <mxGeometry x="404" y="16" width="317.5" height="97" as="geometry" />
        </mxCell>
        <mxCell id="h02Y4UNwVWyTR7LeDXFe-8" style="edgeStyle=none;rounded=1;orthogonalLoop=1;jettySize=auto;html=1;entryX=1;entryY=0.5;entryDx=0;entryDy=0;entryPerimeter=0;endArrow=none;endFill=0;strokeColor=#000000;strokeWidth=3;opacity=70;" edge="1" parent="h02Y4UNwVWyTR7LeDXFe-1">
          <mxGeometry relative="1" as="geometry">
            <mxPoint x="426" y="772" as="sourcePoint" />
            <mxPoint x="266" y="772" as="targetPoint" />
          </mxGeometry>
        </mxCell>
        <mxCell id="h02Y4UNwVWyTR7LeDXFe-9" value="&lt;font style=&quot;font-size: 7px; font-weight: normal;&quot;&gt;&amp;nbsp;Copper link (Trunk 802.1Q)&lt;/font&gt;" style="edgeLabel;html=1;align=center;verticalAlign=middle;resizable=0;points=[];fontSize=8;fontStyle=1" vertex="1" connectable="0" parent="h02Y4UNwVWyTR7LeDXFe-8">
          <mxGeometry x="0.165" relative="1" as="geometry">
            <mxPoint x="13" y="-2" as="offset" />
          </mxGeometry>
        </mxCell>
        <mxCell id="h02Y4UNwVWyTR7LeDXFe-10" value="" style="ellipse;whiteSpace=wrap;html=1;aspect=fixed;rounded=1;fillColor=#E6E6E6;strokeColor=none;shadow=0;fillStyle=auto;gradientColor=none;" vertex="1" parent="h02Y4UNwVWyTR7LeDXFe-1">
          <mxGeometry x="447" y="317" width="206" height="206" as="geometry" />
        </mxCell>
        <mxCell id="h02Y4UNwVWyTR7LeDXFe-19" style="edgeStyle=none;rounded=1;orthogonalLoop=1;jettySize=auto;html=1;exitX=0.5;exitY=1;exitDx=0;exitDy=0;exitPerimeter=0;entryX=0.5;entryY=0;entryDx=0;entryDy=0;entryPerimeter=0;endArrow=none;endFill=0;strokeWidth=2;" edge="1" parent="h02Y4UNwVWyTR7LeDXFe-1" source="h02Y4UNwVWyTR7LeDXFe-33" target="h02Y4UNwVWyTR7LeDXFe-21">
          <mxGeometry relative="1" as="geometry" />
        </mxCell>
        <mxCell id="h02Y4UNwVWyTR7LeDXFe-20" style="edgeStyle=none;rounded=1;orthogonalLoop=1;jettySize=auto;html=1;exitX=1;exitY=0.5;exitDx=0;exitDy=0;exitPerimeter=0;entryX=1;entryY=0.5;entryDx=0;entryDy=0;entryPerimeter=0;endArrow=none;endFill=0;strokeWidth=3;" edge="1" parent="h02Y4UNwVWyTR7LeDXFe-1" source="h02Y4UNwVWyTR7LeDXFe-22" target="h02Y4UNwVWyTR7LeDXFe-21">
          <mxGeometry relative="1" as="geometry">
            <mxPoint x="651" y="322" as="sourcePoint" />
            <mxPoint x="651" y="462" as="targetPoint" />
          </mxGeometry>
        </mxCell>
        <mxCell id="h02Y4UNwVWyTR7LeDXFe-22" value="" style="points=[[0.015,0.015,0],[0.985,0.015,0],[0.985,0.985,0],[0.015,0.985,0],[0.25,0,0],[0.5,0,0],[0.75,0,0],[1,0.25,0],[1,0.5,0],[1,0.75,0],[0.75,1,0],[0.5,1,0],[0.25,1,0],[0,0.75,0],[0,0.5,0],[0,0.25,0]];verticalLabelPosition=bottom;html=1;verticalAlign=top;aspect=fixed;align=center;pointerEvents=1;shape=mxgraph.cisco19.rect;prIcon=workgroup_switch;fillColor=#FAFAFA;strokeColor=#005073;rounded=1;" vertex="1" parent="h02Y4UNwVWyTR7LeDXFe-1">
          <mxGeometry x="430" y="452" width="50" height="50" as="geometry" />
        </mxCell>
        <mxCell id="h02Y4UNwVWyTR7LeDXFe-33" value="" style="points=[[0.015,0.015,0],[0.985,0.015,0],[0.985,0.985,0],[0.015,0.985,0],[0.25,0,0],[0.5,0,0],[0.75,0,0],[1,0.25,0],[1,0.5,0],[1,0.75,0],[0.75,1,0],[0.5,1,0],[0.25,1,0],[0,0.75,0],[0,0.5,0],[0,0.25,0]];verticalLabelPosition=bottom;html=1;verticalAlign=top;aspect=fixed;align=center;pointerEvents=1;shape=mxgraph.cisco19.rect;prIcon=workgroup_switch;fillColor=#FAFAFA;strokeColor=#005073;rounded=1;" vertex="1" parent="h02Y4UNwVWyTR7LeDXFe-1">
          <mxGeometry x="616" y="315" width="50" height="50" as="geometry" />
        </mxCell>
        <mxCell id="h02Y4UNwVWyTR7LeDXFe-38" value="&lt;b&gt;&lt;font style=&quot;color: rgb(103, 171, 159);&quot;&gt;vlan18&amp;nbsp; &lt;/font&gt;&lt;font style=&quot;color: rgb(128, 128, 128);&quot;&gt;10.10.2.0/24&lt;/font&gt;&lt;/b&gt;" style="text;strokeColor=none;align=center;fillColor=none;html=1;verticalAlign=middle;whiteSpace=wrap;rounded=1;fontSize=13;fontFamily=Verdana;fontColor=#333333;" vertex="1" parent="h02Y4UNwVWyTR7LeDXFe-1">
          <mxGeometry x="497" y="405" width="114" height="30" as="geometry" />
        </mxCell>
        <mxCell id="h02Y4UNwVWyTR7LeDXFe-39" value="&lt;b&gt;RDC&lt;/b&gt;" style="text;strokeColor=none;align=center;fillColor=none;html=1;verticalAlign=middle;whiteSpace=wrap;rounded=1;fontSize=10;fontFamily=Verdana;fontColor=#FF3399;" vertex="1" parent="h02Y4UNwVWyTR7LeDXFe-1">
          <mxGeometry x="607.5" y="425" width="114" height="30" as="geometry" />
        </mxCell>
        <mxCell id="h02Y4UNwVWyTR7LeDXFe-40" value="&lt;b&gt;FLOOR 01&lt;/b&gt;" style="text;strokeColor=none;align=center;fillColor=none;html=1;verticalAlign=middle;whiteSpace=wrap;rounded=1;fontSize=10;fontFamily=Verdana;fontColor=#FF3399;" vertex="1" parent="h02Y4UNwVWyTR7LeDXFe-1">
          <mxGeometry x="618" y="363" width="114" height="30" as="geometry" />
        </mxCell>
        <mxCell id="3T1WpaVU0jjgQqvDcV9V-4" value="" style="group" vertex="1" connectable="0" parent="h02Y4UNwVWyTR7LeDXFe-1">
          <mxGeometry x="248" y="183.5" width="114" height="78" as="geometry" />
        </mxCell>
        <mxCell id="3T1WpaVU0jjgQqvDcV9V-0" value="" style="points=[[0.015,0.015,0],[0.5,0,0],[0.985,0.015,0],[1,0.22,0],[0.985,0.43,0],[0.73,0.85,0],[0.5,1,0],[0.285,0.85,0],[0.015,0.43,0],[0,0.22,0]];verticalLabelPosition=bottom;sketch=0;html=1;verticalAlign=top;aspect=fixed;align=center;pointerEvents=1;shape=mxgraph.cisco19.surveillance_camera;fillColor=#005073;strokeColor=none;" vertex="1" parent="3T1WpaVU0jjgQqvDcV9V-4">
          <mxGeometry x="37.91999999999996" y="42" width="46.08" height="36" as="geometry" />
        </mxCell>
        <mxCell id="3T1WpaVU0jjgQqvDcV9V-8" value="" style="group" vertex="1" connectable="0" parent="h02Y4UNwVWyTR7LeDXFe-1">
          <mxGeometry x="70" y="182.5" width="114" height="78" as="geometry" />
        </mxCell>
        <mxCell id="3T1WpaVU0jjgQqvDcV9V-9" value="&lt;font style=&quot;&quot;&gt;&lt;font style=&quot;&quot;&gt;&lt;span style=&quot;color: rgb(0, 0, 0);&quot;&gt;&lt;b style=&quot;color: light-dark(rgb(0, 0, 0), rgb(237, 237, 237)); font-size: 9px;&quot;&gt;Nest Back Office&lt;br&gt;&lt;/b&gt;&lt;span style=&quot;text-align: left;&quot;&gt;&lt;font style=&quot;font-size: 9px;&quot;&gt;64:16:66:DE:68:54&lt;br&gt;&lt;/font&gt;&lt;/span&gt;&lt;font style=&quot;color: light-dark(rgb(0, 0, 0), rgb(237, 237, 237)); font-size: 11px;&quot;&gt;&amp;nbsp;&lt;/font&gt;&lt;/span&gt;&lt;font style=&quot;font-size: 9px; color: rgb(103, 171, 159);&quot;&gt;192.168.200.30&lt;/font&gt;&lt;br&gt;&lt;br&gt;&lt;/font&gt;&lt;/font&gt;" style="text;strokeColor=none;align=center;fillColor=none;html=1;verticalAlign=middle;whiteSpace=wrap;rounded=1;fontSize=10;" vertex="1" parent="3T1WpaVU0jjgQqvDcV9V-8">
          <mxGeometry y="-2" width="114" height="30" as="geometry" />
        </mxCell>
        <mxCell id="3T1WpaVU0jjgQqvDcV9V-10" value="" style="points=[[0.015,0.015,0],[0.5,0,0],[0.985,0.015,0],[1,0.22,0],[0.985,0.43,0],[0.73,0.85,0],[0.5,1,0],[0.285,0.85,0],[0.015,0.43,0],[0,0.22,0]];verticalLabelPosition=bottom;sketch=0;html=1;verticalAlign=top;aspect=fixed;align=center;pointerEvents=1;shape=mxgraph.cisco19.surveillance_camera;fillColor=#005073;strokeColor=none;" vertex="1" parent="3T1WpaVU0jjgQqvDcV9V-8">
          <mxGeometry x="36.91999999999996" y="42" width="46.08" height="36" as="geometry" />
        </mxCell>
        <mxCell id="9cGoJQG_ge7uvgVQGtIt-0" value="" style="group" vertex="1" connectable="0" parent="h02Y4UNwVWyTR7LeDXFe-1">
          <mxGeometry x="161" y="180.5" width="119" height="81" as="geometry" />
        </mxCell>
        <mxCell id="3T1WpaVU0jjgQqvDcV9V-5" value="" style="group" vertex="1" connectable="0" parent="9cGoJQG_ge7uvgVQGtIt-0">
          <mxGeometry y="3" width="114" height="78" as="geometry" />
        </mxCell>
        <mxCell id="3T1WpaVU0jjgQqvDcV9V-7" value="" style="points=[[0.015,0.015,0],[0.5,0,0],[0.985,0.015,0],[1,0.22,0],[0.985,0.43,0],[0.73,0.85,0],[0.5,1,0],[0.285,0.85,0],[0.015,0.43,0],[0,0.22,0]];verticalLabelPosition=bottom;sketch=0;html=1;verticalAlign=top;aspect=fixed;align=center;pointerEvents=1;shape=mxgraph.cisco19.surveillance_camera;fillColor=#005073;strokeColor=none;" vertex="1" parent="3T1WpaVU0jjgQqvDcV9V-5">
          <mxGeometry x="36.91999999999996" y="42" width="46.08" height="36" as="geometry" />
        </mxCell>
        <mxCell id="3T1WpaVU0jjgQqvDcV9V-6" value="&lt;font style=&quot;&quot;&gt;&lt;font style=&quot;&quot;&gt;&lt;span style=&quot;color: rgb(0, 0, 0);&quot;&gt;&lt;b style=&quot;font-size: 9px;&quot;&gt;Nest Tsafir Office&lt;br&gt;&lt;/b&gt;&lt;span style=&quot;text-align: left;&quot;&gt;&lt;font style=&quot;font-size: 9px;&quot;&gt;18:B4:30:50:88:C5&lt;br&gt;&lt;/font&gt;&lt;/span&gt;&lt;font style=&quot;font-size: 11px;&quot;&gt;&amp;nbsp;&lt;/font&gt;&lt;/span&gt;&lt;font style=&quot;font-size: 9px; color: rgb(103, 171, 159);&quot;&gt;192.168.200.203&lt;/font&gt;&lt;br&gt;&lt;br&gt;&lt;/font&gt;&lt;/font&gt;" style="text;strokeColor=none;align=center;fillColor=none;html=1;verticalAlign=middle;whiteSpace=wrap;rounded=1;fontSize=10;" vertex="1" parent="9cGoJQG_ge7uvgVQGtIt-0">
          <mxGeometry x="5" width="114" height="30" as="geometry" />
        </mxCell>
        <mxCell id="3T1WpaVU0jjgQqvDcV9V-12" value="&lt;font style=&quot;&quot;&gt;&lt;font style=&quot;&quot;&gt;&lt;span style=&quot;color: rgb(0, 0, 0);&quot;&gt;&lt;b style=&quot;color: light-dark(rgb(0, 0, 0), rgb(237, 237, 237)); font-size: 9px;&quot;&gt;Nest Entrance Office&lt;/b&gt;&lt;br&gt;&lt;div style=&quot;&quot;&gt;&lt;span style=&quot;background-color: transparent; color: rgb(0, 0, 0);&quot;&gt;&lt;font style=&quot;font-size: 9px;&quot;&gt;64:16:66:DD:71:03&lt;br&gt;&lt;/font&gt;&lt;font style=&quot;color: light-dark(rgb(0, 0, 0), rgb(237, 237, 237)); font-size: 11px; font-weight: normal;&quot;&gt;&amp;nbsp;&lt;/font&gt;&lt;/span&gt;&lt;font style=&quot;color: rgb(103, 171, 159); font-size: 9px; font-weight: normal; background-color: transparent;&quot;&gt;192.168.200.36&lt;/font&gt;&lt;/div&gt;&lt;/span&gt;&lt;br&gt;&lt;/font&gt;&lt;/font&gt;" style="text;strokeColor=none;align=center;fillColor=none;html=1;verticalAlign=middle;whiteSpace=wrap;rounded=1;fontSize=10;" vertex="1" parent="h02Y4UNwVWyTR7LeDXFe-1">
          <mxGeometry x="355" y="180" width="114" height="30" as="geometry" />
        </mxCell>
        <mxCell id="3T1WpaVU0jjgQqvDcV9V-13" value="" style="points=[[0.015,0.015,0],[0.5,0,0],[0.985,0.015,0],[1,0.22,0],[0.985,0.43,0],[0.73,0.85,0],[0.5,1,0],[0.285,0.85,0],[0.015,0.43,0],[0,0.22,0]];verticalLabelPosition=bottom;sketch=0;html=1;verticalAlign=top;aspect=fixed;align=center;pointerEvents=1;shape=mxgraph.cisco19.surveillance_camera;fillColor=#005073;strokeColor=none;" vertex="1" parent="h02Y4UNwVWyTR7LeDXFe-1">
          <mxGeometry x="381.91999999999996" y="225" width="46.08" height="36" as="geometry" />
        </mxCell>
        <mxCell id="hrIfUDJPkKCkKnt8l-FT-0" value="&lt;font style=&quot;&quot;&gt;&lt;font style=&quot;&quot;&gt;&lt;span style=&quot;color: rgb(0, 0, 0);&quot;&gt;&lt;div style=&quot;text-align: left;&quot;&gt;&lt;span style=&quot;background-color: transparent; color: rgb(0, 0, 0);&quot;&gt;&lt;font style=&quot;font-size: 9px;&quot;&gt;&lt;b&gt;Nest Ring Cam Mini&lt;br&gt;&lt;/b&gt;&lt;/font&gt;&lt;font style=&quot;font-size: 9px;&quot;&gt;34:3E:A4:4E:48:44&lt;br&gt;&lt;/font&gt;&lt;font style=&quot;color: light-dark(rgb(0, 0, 0), rgb(237, 237, 237)); font-size: 11px; font-weight: normal;&quot;&gt;&amp;nbsp;&lt;/font&gt;&lt;/span&gt;&lt;font style=&quot;color: rgb(103, 171, 159); font-size: 9px; font-weight: normal; background-color: transparent;&quot;&gt;192.168.200.238&lt;/font&gt;&lt;/div&gt;&lt;/span&gt;&lt;br&gt;&lt;/font&gt;&lt;/font&gt;" style="text;strokeColor=none;align=center;fillColor=none;html=1;verticalAlign=middle;whiteSpace=wrap;rounded=1;fontSize=10;" vertex="1" parent="h02Y4UNwVWyTR7LeDXFe-1">
          <mxGeometry x="458" y="180.5" width="114" height="30" as="geometry" />
        </mxCell>
        <mxCell id="hrIfUDJPkKCkKnt8l-FT-1" value="" style="points=[[0.015,0.015,0],[0.5,0,0],[0.985,0.015,0],[1,0.22,0],[0.985,0.43,0],[0.73,0.85,0],[0.5,1,0],[0.285,0.85,0],[0.015,0.43,0],[0,0.22,0]];verticalLabelPosition=bottom;sketch=0;html=1;verticalAlign=top;aspect=fixed;align=center;pointerEvents=1;shape=mxgraph.cisco19.surveillance_camera;fillColor=#005073;strokeColor=none;" vertex="1" parent="h02Y4UNwVWyTR7LeDXFe-1">
          <mxGeometry x="486" y="225" width="46.08" height="36" as="geometry" />
        </mxCell>
        <mxCell id="h02Y4UNwVWyTR7LeDXFe-29" value="&lt;font style=&quot;font-size: 9px;&quot;&gt;&lt;font&gt;&lt;span style=&quot;color: rgb(0, 0, 0);&quot;&gt;&lt;b&gt;Nest Gate CAM&lt;br&gt;&lt;/b&gt;3C-31-74-56-59-F4 &lt;/span&gt;&lt;font style=&quot;color: rgb(103, 171, 159);&quot;&gt;192.168.200.19&lt;/font&gt;&lt;br&gt;&lt;br&gt;&lt;/font&gt;&lt;/font&gt;" style="text;strokeColor=none;align=center;fillColor=none;html=1;verticalAlign=middle;whiteSpace=wrap;rounded=1;fontSize=10;" vertex="1" parent="h02Y4UNwVWyTR7LeDXFe-1">
          <mxGeometry x="258" y="179.5" width="114" height="30" as="geometry" />
        </mxCell>
        <mxCell id="_mcRxjjjSgAuDNnsRff5-1" value="" style="sketch=0;outlineConnect=0;fontColor=#232F3E;gradientColor=none;strokeColor=#232F3E;fillColor=#ffffff;dashed=0;verticalLabelPosition=bottom;verticalAlign=top;align=center;html=1;fontSize=12;fontStyle=0;aspect=fixed;shape=mxgraph.aws4.resourceIcon;resIcon=mxgraph.aws4.traditional_server;" vertex="1" parent="h02Y4UNwVWyTR7LeDXFe-1">
          <mxGeometry x="1101.5" y="482" width="52" height="52" as="geometry" />
        </mxCell>
        <mxCell id="_mcRxjjjSgAuDNnsRff5-2" value="" style="rounded=1;whiteSpace=wrap;html=1;fillColor=#CCCCCC;strokeColor=none;opacity=30;" vertex="1" parent="h02Y4UNwVWyTR7LeDXFe-1">
          <mxGeometry x="622.25" y="497" width="527.25" height="42" as="geometry" />
        </mxCell>
        <mxCell id="_mcRxjjjSgAuDNnsRff5-4" value="&lt;span style=&quot;font-size: 8px;&quot;&gt;&lt;b&gt;Back Openspace&lt;/b&gt; .3&lt;br&gt;Port 36&lt;br&gt;&lt;/span&gt;" style="text;strokeColor=none;align=left;fillColor=none;html=1;verticalAlign=middle;whiteSpace=wrap;rounded=1;fontSize=8;fontStyle=0" vertex="1" parent="h02Y4UNwVWyTR7LeDXFe-1">
          <mxGeometry x="616" y="553" width="64.25" height="23" as="geometry" />
        </mxCell>
        <mxCell id="_mcRxjjjSgAuDNnsRff5-5" value="" style="image;points=[];aspect=fixed;html=1;align=center;shadow=0;dashed=0;image=img/lib/allied_telesis/security/POE_DVS_Camera.svg;" vertex="1" parent="h02Y4UNwVWyTR7LeDXFe-1">
          <mxGeometry x="620" y="505" width="51" height="40.2" as="geometry" />
        </mxCell>
        <mxCell id="_mcRxjjjSgAuDNnsRff5-6" value="" style="image;points=[];aspect=fixed;html=1;align=center;shadow=0;dashed=0;image=img/lib/allied_telesis/security/POE_DVS_Camera.svg;" vertex="1" parent="h02Y4UNwVWyTR7LeDXFe-1">
          <mxGeometry x="685.25" y="505" width="51" height="40.2" as="geometry" />
        </mxCell>
        <mxCell id="_mcRxjjjSgAuDNnsRff5-7" value="" style="image;points=[];aspect=fixed;html=1;align=center;shadow=0;dashed=0;image=img/lib/allied_telesis/security/POE_DVS_Camera.svg;" vertex="1" parent="h02Y4UNwVWyTR7LeDXFe-1">
          <mxGeometry x="741" y="499" width="51" height="40.2" as="geometry" />
        </mxCell>
        <mxCell id="_mcRxjjjSgAuDNnsRff5-8" value="" style="image;points=[];aspect=fixed;html=1;align=center;shadow=0;dashed=0;image=img/lib/allied_telesis/security/POE_DVS_Camera.svg;" vertex="1" parent="h02Y4UNwVWyTR7LeDXFe-1">
          <mxGeometry x="798" y="499" width="51" height="40.2" as="geometry" />
        </mxCell>
        <mxCell id="_mcRxjjjSgAuDNnsRff5-9" value="" style="image;points=[];aspect=fixed;html=1;align=center;shadow=0;dashed=0;image=img/lib/allied_telesis/security/POE_DVS_Camera.svg;" vertex="1" parent="h02Y4UNwVWyTR7LeDXFe-1">
          <mxGeometry x="855" y="496" width="51" height="40.2" as="geometry" />
        </mxCell>
        <mxCell id="_mcRxjjjSgAuDNnsRff5-10" value="&lt;span style=&quot;font-size: 8px;&quot;&gt;&lt;b&gt;Front&amp;nbsp; OpenSpace&lt;/b&gt;.2&lt;br&gt;Port 35&lt;br&gt;&lt;/span&gt;" style="text;strokeColor=none;align=left;fillColor=none;html=1;verticalAlign=middle;whiteSpace=wrap;rounded=1;fontSize=8;fontStyle=0" vertex="1" parent="h02Y4UNwVWyTR7LeDXFe-1">
          <mxGeometry x="680" y="555" width="50" height="23" as="geometry" />
        </mxCell>
        <mxCell id="_mcRxjjjSgAuDNnsRff5-11" value="&lt;span style=&quot;font-size: 8px;&quot;&gt;&lt;b&gt;Reception&amp;nbsp;&lt;/b&gt;.4&lt;br&gt;Port 32&lt;br&gt;&lt;/span&gt;" style="text;strokeColor=none;align=left;fillColor=none;html=1;verticalAlign=middle;whiteSpace=wrap;rounded=1;fontSize=8;fontStyle=0" vertex="1" parent="h02Y4UNwVWyTR7LeDXFe-1">
          <mxGeometry x="739" y="549" width="50" height="23" as="geometry" />
        </mxCell>
        <mxCell id="_mcRxjjjSgAuDNnsRff5-12" value="&lt;span style=&quot;font-size: 8px;&quot;&gt;&lt;b&gt;Exit Kitchen&amp;nbsp;&lt;/b&gt;.5&lt;br&gt;Port 26&lt;br&gt;&lt;/span&gt;" style="text;strokeColor=none;align=left;fillColor=none;html=1;verticalAlign=middle;whiteSpace=wrap;rounded=1;fontSize=8;fontStyle=0" vertex="1" parent="h02Y4UNwVWyTR7LeDXFe-1">
          <mxGeometry x="803" y="554" width="50" height="23" as="geometry" />
        </mxCell>
        <mxCell id="_mcRxjjjSgAuDNnsRff5-13" value="&lt;span style=&quot;font-size: 8px;&quot;&gt;&lt;b&gt;Meeting Room&amp;nbsp;&lt;/b&gt;.6&lt;br&gt;Port 29&lt;br&gt;&lt;/span&gt;" style="text;strokeColor=none;align=left;fillColor=none;html=1;verticalAlign=middle;whiteSpace=wrap;rounded=1;fontSize=8;fontStyle=0" vertex="1" parent="h02Y4UNwVWyTR7LeDXFe-1">
          <mxGeometry x="860" y="553" width="50" height="23" as="geometry" />
        </mxCell>
        <mxCell id="_mcRxjjjSgAuDNnsRff5-14" value="" style="image;points=[];aspect=fixed;html=1;align=center;shadow=0;dashed=0;image=img/lib/allied_telesis/security/POE_DVS_Camera.svg;" vertex="1" parent="h02Y4UNwVWyTR7LeDXFe-1">
          <mxGeometry x="915" y="496" width="51" height="40.2" as="geometry" />
        </mxCell>
        <mxCell id="_mcRxjjjSgAuDNnsRff5-15" value="&lt;span style=&quot;font-size: 8px;&quot;&gt;&lt;b&gt;Main Road&lt;/b&gt;.7&lt;br&gt;Port 27&lt;br&gt;&lt;/span&gt;" style="text;strokeColor=none;align=left;fillColor=none;html=1;verticalAlign=middle;whiteSpace=wrap;rounded=1;fontSize=8;fontStyle=0" vertex="1" parent="h02Y4UNwVWyTR7LeDXFe-1">
          <mxGeometry x="915" y="550" width="50" height="23" as="geometry" />
        </mxCell>
        <mxCell id="_mcRxjjjSgAuDNnsRff5-16" value="" style="image;points=[];aspect=fixed;html=1;align=center;shadow=0;dashed=0;image=img/lib/allied_telesis/security/POE_DVS_Camera.svg;" vertex="1" parent="h02Y4UNwVWyTR7LeDXFe-1">
          <mxGeometry x="980" y="495" width="51" height="40.2" as="geometry" />
        </mxCell>
        <mxCell id="_mcRxjjjSgAuDNnsRff5-17" value="&lt;span style=&quot;font-size: 8px;&quot;&gt;&lt;b&gt;Front&amp;nbsp; Gate&amp;nbsp;&lt;/b&gt;.15&lt;br&gt;Port 41&lt;br&gt;&lt;/span&gt;" style="text;strokeColor=none;align=left;fillColor=none;html=1;verticalAlign=middle;whiteSpace=wrap;rounded=1;fontSize=8;fontStyle=0" vertex="1" parent="h02Y4UNwVWyTR7LeDXFe-1">
          <mxGeometry x="1049" y="551.1999999999998" width="50" height="23" as="geometry" />
        </mxCell>
        <mxCell id="_mcRxjjjSgAuDNnsRff5-18" value="&lt;span style=&quot;font-size: 8px;&quot;&gt;&lt;b&gt;NVR&lt;br&gt;&lt;/b&gt;10.10.2.253&lt;br&gt;Port 31&lt;br&gt;&lt;/span&gt;" style="text;strokeColor=none;align=left;fillColor=none;html=1;verticalAlign=middle;whiteSpace=wrap;rounded=1;fontSize=8;fontStyle=0" vertex="1" parent="h02Y4UNwVWyTR7LeDXFe-1">
          <mxGeometry x="1116.5" y="551" width="50" height="23" as="geometry" />
        </mxCell>
        <mxCell id="_mcRxjjjSgAuDNnsRff5-19" value="" style="image;points=[];aspect=fixed;html=1;align=center;shadow=0;dashed=0;image=img/lib/allied_telesis/security/POE_DVS_Camera.svg;" vertex="1" parent="h02Y4UNwVWyTR7LeDXFe-1">
          <mxGeometry x="1041" y="495" width="51" height="40.2" as="geometry" />
        </mxCell>
        <mxCell id="_mcRxjjjSgAuDNnsRff5-20" value="&lt;span style=&quot;font-size: 8px;&quot;&gt;&lt;b&gt;Front&amp;nbsp; Building&lt;/b&gt;.8&lt;br&gt;Port 28&lt;br&gt;&lt;/span&gt;" style="text;strokeColor=none;align=left;fillColor=none;html=1;verticalAlign=middle;whiteSpace=wrap;rounded=1;fontSize=8;fontStyle=0" vertex="1" parent="h02Y4UNwVWyTR7LeDXFe-1">
          <mxGeometry x="987" y="553" width="50" height="23" as="geometry" />
        </mxCell>
        <mxCell id="h02Y4UNwVWyTR7LeDXFe-21" value="" style="points=[[0.015,0.015,0],[0.985,0.015,0],[0.985,0.985,0],[0.015,0.985,0],[0.25,0,0],[0.5,0,0],[0.75,0,0],[1,0.25,0],[1,0.5,0],[1,0.75,0],[0.75,1,0],[0.5,1,0],[0.25,1,0],[0,0.75,0],[0,0.5,0],[0,0.25,0]];verticalLabelPosition=bottom;html=1;verticalAlign=top;aspect=fixed;align=center;pointerEvents=1;shape=mxgraph.cisco19.rect;prIcon=workgroup_switch;fillColor=#FAFAFA;strokeColor=#005073;rounded=1;" vertex="1" parent="h02Y4UNwVWyTR7LeDXFe-1">
          <mxGeometry x="616" y="452" width="50" height="50" as="geometry" />
        </mxCell>
        <mxCell id="_mcRxjjjSgAuDNnsRff5-22" value="" style="rounded=1;whiteSpace=wrap;html=1;fillColor=#CCCCCC;strokeColor=none;opacity=30;" vertex="1" parent="h02Y4UNwVWyTR7LeDXFe-1">
          <mxGeometry x="656" y="279" width="312" height="42" as="geometry" />
        </mxCell>
        <mxCell id="_mcRxjjjSgAuDNnsRff5-23" value="&lt;span style=&quot;font-size: 8px;&quot;&gt;&lt;b&gt;Backyard &lt;br&gt;IT&lt;/b&gt; .13&lt;br&gt;Port 5&lt;br&gt;&lt;/span&gt;" style="text;strokeColor=none;align=left;fillColor=none;html=1;verticalAlign=middle;whiteSpace=wrap;rounded=1;fontSize=8;fontStyle=0" vertex="1" parent="h02Y4UNwVWyTR7LeDXFe-1">
          <mxGeometry x="671" y="334" width="64.25" height="23" as="geometry" />
        </mxCell>
        <mxCell id="_mcRxjjjSgAuDNnsRff5-24" value="" style="image;points=[];aspect=fixed;html=1;align=center;shadow=0;dashed=0;image=img/lib/allied_telesis/security/POE_DVS_Camera.svg;" vertex="1" parent="h02Y4UNwVWyTR7LeDXFe-1">
          <mxGeometry x="674" y="287" width="51" height="40.2" as="geometry" />
        </mxCell>
        <mxCell id="_mcRxjjjSgAuDNnsRff5-25" value="" style="image;points=[];aspect=fixed;html=1;align=center;shadow=0;dashed=0;image=img/lib/allied_telesis/security/POE_DVS_Camera.svg;" vertex="1" parent="h02Y4UNwVWyTR7LeDXFe-1">
          <mxGeometry x="738.25" y="287" width="51" height="40.2" as="geometry" />
        </mxCell>
        <mxCell id="_mcRxjjjSgAuDNnsRff5-26" value="" style="image;points=[];aspect=fixed;html=1;align=center;shadow=0;dashed=0;image=img/lib/allied_telesis/security/POE_DVS_Camera.svg;" vertex="1" parent="h02Y4UNwVWyTR7LeDXFe-1">
          <mxGeometry x="798" y="281" width="51" height="40.2" as="geometry" />
        </mxCell>
        <mxCell id="_mcRxjjjSgAuDNnsRff5-27" value="" style="image;points=[];aspect=fixed;html=1;align=center;shadow=0;dashed=0;image=img/lib/allied_telesis/security/POE_DVS_Camera.svg;" vertex="1" parent="h02Y4UNwVWyTR7LeDXFe-1">
          <mxGeometry x="858" y="281" width="51" height="40.2" as="geometry" />
        </mxCell>
        <mxCell id="_mcRxjjjSgAuDNnsRff5-28" value="" style="image;points=[];aspect=fixed;html=1;align=center;shadow=0;dashed=0;image=img/lib/allied_telesis/security/POE_DVS_Camera.svg;" vertex="1" parent="h02Y4UNwVWyTR7LeDXFe-1">
          <mxGeometry x="922" y="278" width="51" height="40.2" as="geometry" />
        </mxCell>
        <mxCell id="_mcRxjjjSgAuDNnsRff5-29" value="&lt;span style=&quot;font-size: 8px;&quot;&gt;&lt;b&gt;Fl1 Boss Corridor&amp;nbsp;&lt;/b&gt;.9&lt;br&gt;Port 4&lt;br&gt;&lt;/span&gt;" style="text;strokeColor=none;align=left;fillColor=none;html=1;verticalAlign=middle;whiteSpace=wrap;rounded=1;fontSize=8;fontStyle=0" vertex="1" parent="h02Y4UNwVWyTR7LeDXFe-1">
          <mxGeometry x="800" y="334" width="50" height="23" as="geometry" />
        </mxCell>
        <mxCell id="_mcRxjjjSgAuDNnsRff5-30" value="&lt;span style=&quot;font-size: 8px;&quot;&gt;&lt;b&gt;Finance Office&amp;nbsp;&lt;/b&gt;.10&lt;br&gt;Port 1&lt;br&gt;&lt;/span&gt;" style="text;strokeColor=none;align=left;fillColor=none;html=1;verticalAlign=middle;whiteSpace=wrap;rounded=1;fontSize=8;fontStyle=0" vertex="1" parent="h02Y4UNwVWyTR7LeDXFe-1">
          <mxGeometry x="862" y="334" width="50" height="23" as="geometry" />
        </mxCell>
        <mxCell id="_mcRxjjjSgAuDNnsRff5-31" value="&lt;span style=&quot;font-size: 8px;&quot;&gt;&lt;b&gt;Corridor Gate Interior&amp;nbsp;&lt;/b&gt;.12&lt;br&gt;Port 2&lt;br&gt;&lt;/span&gt;" style="text;strokeColor=none;align=left;fillColor=none;html=1;verticalAlign=middle;whiteSpace=wrap;rounded=1;fontSize=8;fontStyle=0" vertex="1" parent="h02Y4UNwVWyTR7LeDXFe-1">
          <mxGeometry x="728" y="334" width="63" height="23" as="geometry" />
        </mxCell>
        <mxCell id="_mcRxjjjSgAuDNnsRff5-32" value="&lt;span style=&quot;font-size: 8px;&quot;&gt;&lt;b&gt;Frontage Yard&amp;nbsp;&lt;/b&gt;.11&lt;br&gt;Port 3&lt;br&gt;&lt;/span&gt;" style="text;strokeColor=none;align=left;fillColor=none;html=1;verticalAlign=middle;whiteSpace=wrap;rounded=1;fontSize=8;fontStyle=0" vertex="1" parent="h02Y4UNwVWyTR7LeDXFe-1">
          <mxGeometry x="929" y="334" width="50" height="23" as="geometry" />
        </mxCell>
        <mxCell id="_mcRxjjjSgAuDNnsRff5-33" value="" style="rounded=1;whiteSpace=wrap;html=1;fillColor=#CCCCCC;strokeColor=none;opacity=30;" vertex="1" parent="h02Y4UNwVWyTR7LeDXFe-1">
          <mxGeometry x="312" y="497" width="122.5" height="42" as="geometry" />
        </mxCell>
        <mxCell id="_mcRxjjjSgAuDNnsRff5-34" value="&lt;span style=&quot;font-size: 8px;&quot;&gt;&lt;b&gt;IT openspace&lt;/b&gt;&amp;nbsp;.1&lt;br&gt;Port 17&lt;br&gt;&lt;/span&gt;" style="text;strokeColor=none;align=left;fillColor=none;html=1;verticalAlign=middle;whiteSpace=wrap;rounded=1;fontSize=8;fontStyle=0" vertex="1" parent="h02Y4UNwVWyTR7LeDXFe-1">
          <mxGeometry x="306" y="549" width="67.75" height="23" as="geometry" />
        </mxCell>
        <mxCell id="_mcRxjjjSgAuDNnsRff5-35" value="" style="image;points=[];aspect=fixed;html=1;align=center;shadow=0;dashed=0;image=img/lib/allied_telesis/security/POE_DVS_Camera.svg;" vertex="1" parent="h02Y4UNwVWyTR7LeDXFe-1">
          <mxGeometry x="322.5" y="505" width="51" height="40.2" as="geometry" />
        </mxCell>
        <mxCell id="_mcRxjjjSgAuDNnsRff5-36" value="&lt;span style=&quot;font-size: 8px;&quot;&gt;&lt;b&gt;IT AC&amp;nbsp;&lt;/b&gt;.100&lt;br&gt;Port 8&lt;br&gt;&lt;/span&gt;" style="text;strokeColor=none;align=left;fillColor=none;html=1;verticalAlign=middle;whiteSpace=wrap;rounded=1;fontSize=8;fontStyle=0" vertex="1" parent="h02Y4UNwVWyTR7LeDXFe-1">
          <mxGeometry x="388.5" y="549" width="50" height="23" as="geometry" />
        </mxCell>
        <mxCell id="_mcRxjjjSgAuDNnsRff5-37" value="" style="fillColor=#28A8E0;verticalLabelPosition=bottom;sketch=0;html=1;strokeColor=#ffffff;verticalAlign=top;align=center;points=[[0.145,0.145,0],[0.5,0,0],[0.855,0.145,0],[1,0.5,0],[0.855,0.855,0],[0.5,1,0],[0.145,0.855,0],[0,0.5,0]];pointerEvents=1;shape=mxgraph.cisco_safe.compositeIcon;bgIcon=ellipse;resIcon=mxgraph.cisco_safe.capability.access_control_using_trustsec;" vertex="1" parent="h02Y4UNwVWyTR7LeDXFe-1">
          <mxGeometry x="391.5" y="505" width="29" height="27" as="geometry" />
        </mxCell>
        <mxCell id="W5IGpBKF7IFfIQDimK0S-0" value="" style="sketch=0;aspect=fixed;pointerEvents=1;shadow=0;dashed=0;html=1;strokeColor=none;labelPosition=center;verticalLabelPosition=bottom;verticalAlign=top;align=center;fillColor=#CCCC00;shape=mxgraph.mscae.enterprise.wireless_connection;rotation=-115;opacity=50;" vertex="1" parent="h02Y4UNwVWyTR7LeDXFe-1">
          <mxGeometry x="455" y="292" width="42" height="50" as="geometry" />
        </mxCell>
        <mxCell id="W5IGpBKF7IFfIQDimK0S-2" value="&lt;b&gt;ROOM IT&lt;/b&gt;" style="text;strokeColor=none;align=center;fillColor=none;html=1;verticalAlign=middle;whiteSpace=wrap;rounded=1;fontSize=10;fontFamily=Verdana;fontColor=#FF3399;" vertex="1" parent="h02Y4UNwVWyTR7LeDXFe-1">
          <mxGeometry x="401" y="425" width="114" height="30" as="geometry" />
        </mxCell>
      </root>
    </mxGraphModel>
  </diagram>
</mxfile>
